LisuBosa-Black.ufo
<glyph name="quotedbl" format="2">
  <advance width="361"/>
  <unicode hex="0022"/>
  <outline>
    <contour>
      <point x="41" y="582" type="line"/>
      <point x="151" y="582" type="line"/>
      <point x="135" y="359" type="line"/>
      <point x="59" y="359" type="line"/>
    </contour>
    <contour>
      <point x="209" y="582" type="line"/>
      <point x="320" y="582" type="line"/>
      <point x="301" y="359" type="line"/>
      <point x="225" y="359" type="line"/>
    </contour>
  </outline>
</glyph>
<glyph name="parenleft" format="2">
  <advance width="289"/>
  <unicode hex="0028"/>
  <outline>
    <contour>
      <point x="260" y="-72" type="line"/>
      <point x="136" y="-2"/>
      <point x="126" y="110"/>
      <point x="126" y="268" type="curve" smooth="yes"/>
      <point x="126" y="425"/>
      <point x="136" y="537"/>
      <point x="260" y="607" type="curve"/>
      <point x="260" y="697" type="line"/>
      <point x="89" y="609"/>
      <point x="16" y="477"/>
      <point x="16" y="268" type="curve" smooth="yes"/>
      <point x="16" y="57"/>
      <point x="89" y="-71"/>
      <point x="260" y="-162" type="curve"/>
    </contour>
  </outline>
</glyph>
<glyph name="parenright" format="2">
  <advance width="289"/>
  <unicode hex="0029"/>
  <outline>
    <contour>
      <point x="273" y="268" type="curve" smooth="yes"/>
      <point x="273" y="479"/>
      <point x="200" y="606"/>
      <point x="29" y="697" type="curve"/>
      <point x="29" y="607" type="line"/>
      <point x="153" y="537"/>
      <point x="163" y="425"/>
      <point x="163" y="268" type="curve" smooth="yes"/>
      <point x="163" y="110"/>
      <point x="153" y="-2"/>
      <point x="29" y="-72" type="curve"/>
      <point x="29" y="-162" type="line"/>
      <point x="200" y="-71"/>
      <point x="273" y="57"/>
    </contour>
  </outline>
</glyph>
<glyph name="asterisk" format="2">
  <advance width="360"/>
  <unicode hex="002A"/>
  <outline>
    <contour>
      <point x="188" y="417" type="line"/>
      <point x="188" y="411" type="line"/>
      <point x="327" y="444" type="line"/>
      <point x="288" y="528" type="line"/>
      <point x="166" y="421" type="line"/>
      <point x="186" y="403" type="line"/>
      <point x="228" y="562" type="line"/>
      <point x="134" y="562" type="line"/>
      <point x="171" y="403" type="line"/>
      <point x="196" y="420" type="line"/>
      <point x="73" y="532" type="line"/>
      <point x="34" y="444" type="line"/>
      <point x="172" y="411" type="line"/>
      <point x="172" y="418" type="line"/>
      <point x="34" y="389" type="line"/>
      <point x="72" y="303" type="line"/>
      <point x="193" y="414" type="line"/>
      <point x="171" y="431" type="line"/>
      <point x="134" y="271" type="line"/>
      <point x="228" y="271" type="line"/>
      <point x="189" y="430" type="line"/>
      <point x="166" y="412" type="line"/>
      <point x="288" y="306" type="line"/>
      <point x="327" y="390" type="line"/>
    </contour>
  </outline>
</glyph>
<glyph name="zero" format="2">
  <advance width="450"/>
  <unicode hex="0030"/>
  <outline>
    <contour>
      <point x="226" y="-8" type="curve" smooth="yes"/>
      <point x="362" y="-8"/>
      <point x="415" y="116"/>
      <point x="415" y="266" type="curve" smooth="yes"/>
      <point x="415" y="419"/>
      <point x="362" y="538"/>
      <point x="225" y="538" type="curve" smooth="yes"/>
      <point x="89" y="538"/>
      <point x="36" y="413"/>
      <point x="36" y="265" type="curve" smooth="yes"/>
      <point x="36" y="120"/>
      <point x="87" y="-8"/>
    </contour>
    <contour>
      <point x="225" y="74" type="curve" smooth="yes"/>
      <point x="180" y="74"/>
      <point x="153" y="135"/>
      <point x="153" y="265" type="curve" smooth="yes"/>
      <point x="153" y="395"/>
      <point x="179" y="456"/>
      <point x="224" y="456" type="curve" smooth="yes"/>
      <point x="271" y="456"/>
      <point x="298" y="395"/>
      <point x="298" y="265" type="curve" smooth="yes"/>
      <point x="298" y="135"/>
      <point x="271" y="74"/>
    </contour>
  </outline>
</glyph>
<glyph name="one" format="2">
  <advance width="450"/>
  <unicode hex="0031"/>
  <outline>
    <contour>
      <point x="318" y="0" type="line"/>
      <point x="202" y="0" type="line"/>
      <point x="202" y="367" type="line"/>
      <point x="163" y="334"/>
      <point x="133" y="320"/>
      <point x="92" y="308" type="curve"/>
      <point x="92" y="408" type="line"/>
      <point x="151" y="433"/>
      <point x="202" y="478"/>
      <point x="224" y="531" type="curve"/>
      <point x="318" y="531" type="line"/>
    </contour>
  </outline>
</glyph>
<glyph name="three" format="2">
  <advance width="450"/>
  <unicode hex="0033"/>
  <outline>
    <contour>
      <point x="412" y="163" type="curve" smooth="yes"/>
      <point x="412" y="67"/>
      <point x="332" y="-7"/>
      <point x="221" y="-7" type="curve" smooth="yes"/>
      <point x="114" y="-7"/>
      <point x="51" y="55"/>
      <point x="42" y="150" type="curve"/>
      <point x="152" y="166" type="line"/>
      <point x="158" y="111"/>
      <point x="175" y="74"/>
      <point x="221" y="74" type="curve" smooth="yes"/>
      <point x="260" y="74"/>
      <point x="295" y="113"/>
      <point x="295" y="160" type="curve" smooth="yes"/>
      <point x="295" y="212"/>
      <point x="255" y="238"/>
      <point x="225" y="238" type="curve" smooth="yes"/>
      <point x="219" y="238"/>
      <point x="182" y="237"/>
      <point x="176" y="236" type="curve"/>
      <point x="176" y="319" type="line"/>
      <point x="185" y="318"/>
      <point x="199" y="318"/>
      <point x="215" y="318" type="curve" smooth="yes"/>
      <point x="241" y="318"/>
      <point x="272" y="345"/>
      <point x="272" y="396" type="curve" smooth="yes"/>
      <point x="272" y="430"/>
      <point x="246" y="456"/>
      <point x="215" y="456" type="curve" smooth="yes"/>
      <point x="177" y="456"/>
      <point x="154" y="427"/>
      <point x="144" y="385" type="curve"/>
      <point x="43" y="397" type="line"/>
      <point x="59" y="480"/>
      <point x="123" y="538"/>
      <point x="218" y="538" type="curve" smooth="yes"/>
      <point x="324" y="538"/>
      <point x="389" y="475"/>
      <point x="389" y="394" type="curve" smooth="yes"/>
      <point x="389" y="348"/>
      <point x="359" y="310"/>
      <point x="322" y="287" type="curve"/>
      <point x="375" y="265"/>
      <point x="412" y="221"/>
    </contour>
  </outline>
</glyph>
<glyph name="six" format="2">
  <advance width="450"/>
  <unicode hex="0036"/>
  <outline>
    <contour>
      <point x="413" y="164" type="curve" smooth="yes"/>
      <point x="413" y="53"/>
      <point x="338" y="-8"/>
      <point x="228" y="-8" type="curve" smooth="yes"/>
      <point x="100" y="-8"/>
      <point x="42" y="81"/>
      <point x="42" y="237" type="curve" smooth="yes"/>
      <point x="42" y="419"/>
      <point x="102" y="538"/>
      <point x="251" y="538" type="curve" smooth="yes"/>
      <point x="326" y="538"/>
      <point x="385" y="496"/>
      <point x="405" y="424" type="curve"/>
      <point x="302" y="391" type="line"/>
      <point x="293" y="427"/>
      <point x="273" y="456"/>
      <point x="241" y="456" type="curve" smooth="yes"/>
      <point x="187" y="456"/>
      <point x="156" y="391"/>
      <point x="151" y="294" type="curve"/>
      <point x="169" y="319"/>
      <point x="209" y="341"/>
      <point x="249" y="341" type="curve" smooth="yes"/>
      <point x="345" y="341"/>
      <point x="413" y="273"/>
    </contour>
    <contour>
      <point x="296" y="166" type="curve" smooth="yes"/>
      <point x="296" y="219"/>
      <point x="271" y="260"/>
      <point x="233" y="260" type="curve" smooth="yes"/>
      <point x="194" y="260"/>
      <point x="168" y="224"/>
      <point x="168" y="164" type="curve" smooth="yes"/>
      <point x="168" y="106"/>
      <point x="193" y="73"/>
      <point x="231" y="73" type="curve" smooth="yes"/>
      <point x="272" y="73"/>
      <point x="296" y="110"/>
    </contour>
  </outline>
</glyph>
<glyph name="semicolon" format="2">
  <advance width="276"/>
  <unicode hex="003B"/>
  <outline>
    <contour>
      <point x="138" y="306" type="curve" smooth="yes"/>
      <point x="181" y="306"/>
      <point x="215" y="340"/>
      <point x="215" y="382" type="curve" smooth="yes"/>
      <point x="215" y="425"/>
      <point x="181" y="460"/>
      <point x="138" y="460" type="curve" smooth="yes"/>
      <point x="94" y="460"/>
      <point x="60" y="425"/>
      <point x="60" y="382" type="curve" smooth="yes"/>
      <point x="60" y="340"/>
      <point x="94" y="306"/>
    </contour>
    <contour>
      <point x="211" y="43" type="curve" smooth="yes"/>
      <point x="211" y="68"/>
      <point x="207" y="88"/>
      <point x="199" y="115" type="curve"/>
      <point x="176" y="135"/>
      <point x="156" y="140"/>
      <point x="133" y="140" type="curve" smooth="yes"/>
      <point x="90" y="140"/>
      <point x="60" y="108"/>
      <point x="60" y="68" type="curve" smooth="yes"/>
      <point x="60" y="42"/>
      <point x="73" y="16"/>
      <point x="106" y="-4" type="curve" smooth="yes"/>
      <point x="163" y="-39" type="line"/>
      <point x="146" y="-3" type="line"/>
      <point x="127" y="-70"/>
      <point x="81" y="-120"/>
      <point x="12" y="-156" type="curve"/>
      <point x="25" y="-192" type="line"/>
      <point x="113" y="-162"/>
      <point x="211" y="-78"/>
    </contour>
  </outline>
</glyph>
<glyph name="A" format="2">
  <advance width="617"/>
  <unicode hex="0041"/>
  <anchor x="303" y="632" name="aboveUC"/>
  <anchor x="281" y="-20" name="belowLC"/>
  <anchor x="510" y="0" name="ogonek"/>
  <outline>
    <contour>
      <point x="7" y="0" type="line"/>
      <point x="208" y="0" type="line"/>
      <point x="208" y="45" type="line"/>
      <point x="117" y="58" type="line"/>
      <point x="100" y="58" type="line"/>
      <point x="7" y="45" type="line"/>
    </contour>
    <contour>
      <point x="62" y="0" type="line"/>
      <point x="113" y="0" type="line"/>
      <point x="272" y="481" type="line"/>
      <point x="428" y="0" type="line"/>
      <point x="563" y="0" type="line"/>
      <point x="355" y="609" type="line"/>
      <point x="272" y="609" type="line"/>
    </contour>
    <contour>
      <point x="155" y="184" type="line"/>
      <point x="437" y="184" type="line"/>
      <point x="419" y="233" type="line"/>
      <point x="171" y="233" type="line"/>
    </contour>
    <contour>
      <point x="333" y="0" type="line"/>
      <point x="606" y="0" type="line"/>
      <point x="606" y="44" type="line"/>
      <point x="489" y="57" type="line"/>
      <point x="441" y="57" type="line"/>
      <point x="333" y="44" type="line"/>
    </contour>
  </outline>
</glyph>
<glyph name="B" format="2">
  <advance width="592"/>
  <unicode hex="0042"/>
  <anchor x="278" y="632" name="aboveUC"/>
  <anchor x="310" y="-20" name="belowLC"/>
  <outline>
    <contour>
      <point x="34" y="0" type="line"/>
      <point x="175" y="0" type="line"/>
      <point x="175" y="58" type="line"/>
      <point x="162" y="58" type="line"/>
      <point x="34" y="45" type="line"/>
    </contour>
    <contour>
      <point x="109" y="189"/>
      <point x="109" y="93"/>
      <point x="106" y="0" type="curve"/>
      <point x="242" y="0" type="line"/>
      <point x="240" y="95"/>
      <point x="240" y="191"/>
      <point x="240" y="295" type="curve" smooth="yes"/>
      <point x="240" y="320" type="line" smooth="yes"/>
      <point x="240" y="417"/>
      <point x="240" y="514"/>
      <point x="242" y="608" type="curve"/>
      <point x="106" y="608" type="line"/>
      <point x="109" y="512"/>
      <point x="109" y="415"/>
      <point x="109" y="320" type="curve" smooth="yes"/>
      <point x="109" y="287" type="line" smooth="yes"/>
    </contour>
    <contour>
      <point x="175" y="0" type="line"/>
      <point x="292" y="0" type="line" smooth="yes"/>
      <point x="504" y="0"/>
      <point x="564" y="90"/>
      <point x="564" y="169" type="curve" smooth="yes"/>
      <point x="564" y="254"/>
      <point x="502" y="315"/>
      <point x="345" y="325" type="curve"/>
      <point x="345" y="317" type="line"/>
      <point x="485" y="333"/>
      <point x="530" y="393"/>
      <point x="530" y="462" type="curve" smooth="yes"/>
      <point x="530" y="546"/>
      <point x="467" y="608"/>
      <point x="321" y="608" type="curve" smooth="yes"/>
      <point x="175" y="608" type="line"/>
      <point x="175" y="558" type="line"/>
      <point x="284" y="558" type="line" smooth="yes"/>
      <point x="363" y="558"/>
      <point x="402" y="527"/>
      <point x="402" y="453" type="curve" smooth="yes"/>
      <point x="402" y="377"/>
      <point x="362" y="339"/>
      <point x="273" y="339" type="curve" smooth="yes"/>
      <point x="175" y="339" type="line"/>
      <point x="175" y="293" type="line"/>
      <point x="277" y="293" type="line" smooth="yes"/>
      <point x="380" y="293"/>
      <point x="428" y="253"/>
      <point x="428" y="170" type="curve" smooth="yes"/>
      <point x="428" y="91"/>
      <point x="376" y="49"/>
      <point x="280" y="49" type="curve" smooth="yes"/>
      <point x="175" y="49" type="line"/>
    </contour>
    <contour>
      <point x="34" y="563" type="line"/>
      <point x="162" y="549" type="line"/>
      <point x="175" y="549" type="line"/>
      <point x="175" y="608" type="line"/>
      <point x="34" y="608" type="line"/>
    </contour>
  </outline>
</glyph>
<glyph name="D" format="2">
  <advance width="649"/>
  <unicode hex="0044"/>
  <anchor x="299" y="632" name="aboveUC"/>
  <anchor x="300" y="-20" name="belowLC"/>
  <outline>
    <contour>
      <point x="175" y="0" type="line"/>
      <point x="289" y="0" type="line" smooth="yes"/>
      <point x="483" y="0"/>
      <point x="614" y="111"/>
      <point x="614" y="304" type="curve" smooth="yes"/>
      <point x="614" y="495"/>
      <point x="495" y="608"/>
      <point x="306" y="608" type="curve" smooth="yes"/>
      <point x="175" y="608" type="line"/>
      <point x="175" y="558" type="line"/>
      <point x="291" y="558" type="line" smooth="yes"/>
      <point x="405" y="558"/>
      <point x="475" y="470"/>
      <point x="475" y="303" type="curve" smooth="yes"/>
      <point x="475" y="142"/>
      <point x="405" y="49"/>
      <point x="287" y="49" type="curve" smooth="yes"/>
      <point x="175" y="49" type="line"/>
    </contour>
    <contour>
      <point x="34" y="0" type="line"/>
      <point x="175" y="0" type="line"/>
      <point x="175" y="58" type="line"/>
      <point x="162" y="58" type="line"/>
      <point x="34" y="45" type="line"/>
    </contour>
    <contour>
      <point x="106" y="0" type="curve"/>
      <point x="244" y="0" type="line"/>
      <point x="241" y="94"/>
      <point x="241" y="190"/>
      <point x="241" y="291" type="curve" smooth="yes"/>
      <point x="241" y="322" type="line" smooth="yes"/>
      <point x="241" y="419"/>
      <point x="241" y="515"/>
      <point x="244" y="608" type="curve"/>
      <point x="106" y="608" type="line"/>
      <point x="109" y="513"/>
      <point x="109" y="417"/>
      <point x="109" y="322" type="curve" smooth="yes"/>
      <point x="109" y="290" type="line" smooth="yes"/>
      <point x="109" y="188"/>
      <point x="109" y="92"/>
    </contour>
    <contour>
      <point x="162" y="549" type="line"/>
      <point x="175" y="549" type="line"/>
      <point x="175" y="608" type="line"/>
      <point x="34" y="608" type="line"/>
      <point x="34" y="563" type="line"/>
    </contour>
  </outline>
</glyph>
<glyph name="H" format="2">
  <advance width="711"/>
  <unicode hex="0048"/>
  <anchor x="356" y="632" name="aboveUC"/>
  <anchor x="356" y="-20" name="belowLC"/>
  <outline>
    <contour>
      <point x="34" y="0" type="line"/>
      <point x="313" y="0" type="line"/>
      <point x="313" y="45" type="line"/>
      <point x="184" y="58" type="line"/>
      <point x="160" y="58" type="line"/>
      <point x="34" y="45" type="line"/>
    </contour>
    <contour>
      <point x="108" y="188"/>
      <point x="108" y="92"/>
      <point x="105" y="0" type="curve"/>
      <point x="242" y="0" type="line"/>
      <point x="240" y="94"/>
      <point x="240" y="190"/>
      <point x="240" y="295" type="curve" smooth="yes"/>
      <point x="240" y="322" type="line" smooth="yes"/>
      <point x="240" y="419"/>
      <point x="240" y="515"/>
      <point x="242" y="608" type="curve"/>
      <point x="105" y="608" type="line"/>
      <point x="108" y="513"/>
      <point x="108" y="417"/>
      <point x="108" y="322" type="curve" smooth="yes"/>
      <point x="108" y="285" type="line" smooth="yes"/>
    </contour>
    <contour>
      <point x="174" y="287" type="line"/>
      <point x="536" y="287" type="line"/>
      <point x="536" y="336" type="line"/>
      <point x="174" y="336" type="line"/>
    </contour>
    <contour>
      <point x="397" y="0" type="line"/>
      <point x="678" y="0" type="line"/>
      <point x="678" y="45" type="line"/>
      <point x="549" y="58" type="line"/>
      <point x="526" y="58" type="line"/>
      <point x="397" y="45" type="line"/>
    </contour>
    <contour>
      <point x="471" y="188"/>
      <point x="471" y="92"/>
      <point x="468" y="0" type="curve"/>
      <point x="605" y="0" type="line"/>
      <point x="602" y="94"/>
      <point x="602" y="190"/>
      <point x="602" y="285" type="curve" smooth="yes"/>
      <point x="602" y="322" type="line" smooth="yes"/>
      <point x="602" y="419"/>
      <point x="602" y="515"/>
      <point x="605" y="608" type="curve"/>
      <point x="468" y="608" type="line"/>
      <point x="471" y="513"/>
      <point x="471" y="417"/>
      <point x="471" y="322" type="curve" smooth="yes"/>
      <point x="471" y="295" type="line" smooth="yes"/>
    </contour>
    <contour>
      <point x="34" y="563" type="line"/>
      <point x="160" y="549" type="line"/>
      <point x="184" y="549" type="line"/>
      <point x="313" y="563" type="line"/>
      <point x="313" y="608" type="line"/>
      <point x="34" y="608" type="line"/>
    </contour>
    <contour>
      <point x="397" y="563" type="line"/>
      <point x="526" y="549" type="line"/>
      <point x="549" y="549" type="line"/>
      <point x="678" y="563" type="line"/>
      <point x="678" y="608" type="line"/>
      <point x="397" y="608" type="line"/>
    </contour>
  </outline>
</glyph>
<glyph name="J" format="2">
  <advance width="357"/>
  <unicode hex="004A"/>
  <anchor x="184" y="632" name="aboveUC"/>
  <anchor x="97" y="-153" name="belowLC"/>
  <outline>
    <contour>
      <point x="-47" y="-140"/>
      <point x="-10" y="-156"/>
      <point x="34" y="-156" type="curve" smooth="yes"/>
      <point x="92" y="-156"/>
      <point x="140" y="-135"/>
      <point x="180" y="-96" type="curve" smooth="yes"/>
      <point x="239" y="-37"/>
      <point x="253" y="44"/>
      <point x="253" y="217" type="curve" smooth="yes"/>
      <point x="253" y="328" type="line" smooth="yes"/>
      <point x="253" y="423"/>
      <point x="253" y="517"/>
      <point x="255" y="608" type="curve"/>
      <point x="118" y="608" type="line"/>
      <point x="122" y="248"/>
      <point x="126" y="103"/>
      <point x="126" y="24" type="curve" smooth="yes"/>
      <point x="126" y="-45"/>
      <point x="118" y="-88"/>
      <point x="94" y="-114" type="curve"/>
      <point x="93" y="-123" type="line"/>
      <point x="101" y="-124" type="line"/>
      <point x="111" y="-117" type="line"/>
      <point x="80" y="-84" type="line" smooth="yes"/>
      <point x="53" y="-55"/>
      <point x="30" y="-41"/>
      <point x="1" y="-41" type="curve" smooth="yes"/>
      <point x="-34" y="-41"/>
      <point x="-62" y="-63"/>
      <point x="-65" y="-102" type="curve"/>
    </contour>
    <contour>
      <point x="35" y="563" type="line"/>
      <point x="168" y="549" type="line"/>
      <point x="198" y="549" type="line"/>
      <point x="329" y="563" type="line"/>
      <point x="329" y="608" type="line"/>
      <point x="35" y="608" type="line"/>
    </contour>
  </outline>
</glyph>
<glyph name="K" format="2">
  <advance width="631"/>
  <unicode hex="004B"/>
  <anchor x="332" y="632" name="aboveUC"/>
  <anchor x="339" y="-20" name="belowLC"/>
  <outline>
    <contour>
      <point x="34" y="0" type="line"/>
      <point x="306" y="0" type="line"/>
      <point x="306" y="45" type="line"/>
      <point x="186" y="58" type="line"/>
      <point x="162" y="58" type="line"/>
      <point x="34" y="45" type="line"/>
    </contour>
    <contour>
      <point x="109" y="188"/>
      <point x="109" y="92"/>
      <point x="106" y="0" type="curve"/>
      <point x="239" y="0" type="line"/>
      <point x="236" y="94"/>
      <point x="236" y="190"/>
      <point x="236" y="273" type="curve" smooth="yes"/>
      <point x="236" y="322" type="line" smooth="yes"/>
      <point x="236" y="419"/>
      <point x="236" y="515"/>
      <point x="239" y="608" type="curve"/>
      <point x="106" y="608" type="line"/>
      <point x="109" y="513"/>
      <point x="109" y="417"/>
      <point x="109" y="322" type="curve" smooth="yes"/>
      <point x="109" y="285" type="line" smooth="yes"/>
    </contour>
    <contour>
      <point x="175" y="146" type="line"/>
      <point x="563" y="608" type="line"/>
      <point x="498" y="608" type="line"/>
      <point x="175" y="208" type="line"/>
    </contour>
    <contour>
      <point x="370" y="0" type="line"/>
      <point x="626" y="0" type="line"/>
      <point x="626" y="45" type="line"/>
      <point x="508" y="58" type="line"/>
      <point x="490" y="58" type="line"/>
      <point x="370" y="45" type="line"/>
    </contour>
    <contour>
      <point x="451" y="0" type="line"/>
      <point x="593" y="0" type="line"/>
      <point x="370" y="414" type="line"/>
      <point x="289" y="317" type="line"/>
    </contour>
    <contour>
      <point x="34" y="563" type="line"/>
      <point x="162" y="549" type="line"/>
      <point x="186" y="549" type="line"/>
      <point x="313" y="563" type="line"/>
      <point x="313" y="608" type="line"/>
      <point x="34" y="608" type="line"/>
    </contour>
    <contour>
      <point x="390" y="563" type="line"/>
      <point x="473" y="546" type="line"/>
      <point x="497" y="549" type="line"/>
      <point x="602" y="563" type="line"/>
      <point x="602" y="608" type="line"/>
      <point x="390" y="608" type="line"/>
    </contour>
  </outline>
</glyph>
<glyph name="Q" format="2">
  <advance width="646"/>
  <unicode hex="0051"/>
  <anchor x="323" y="632" name="aboveUC"/>
  <anchor x="323" y="-20" name="belowLC"/>
  <anchor x="459" y="609" name="hornLC"/>
  <anchor x="406" y="0" name="ogonek"/>
  <outline>
    <contour>
      <point x="455" y="-192" type="curve" smooth="yes"/>
      <point x="501" y="-192"/>
      <point x="546" y="-183"/>
      <point x="577" y="-162" type="curve"/>
      <point x="561" y="-117" type="line"/>
      <point x="536" y="-126"/>
      <point x="511" y="-128"/>
      <point x="493" y="-128" type="curve" smooth="yes"/>
      <point x="417" y="-128"/>
      <point x="373" y="-72"/>
      <point x="383" y="22" type="curve"/>
      <point x="256" y="28" type="line"/>
      <point x="256" y="3" type="line" smooth="yes"/>
      <point x="256" y="-107"/>
      <point x="327" y="-192"/>
    </contour>
    <contour>
      <point x="323" y="-16" type="curve" smooth="yes"/>
      <point x="472" y="-16"/>
      <point x="611" y="95"/>
      <point x="611" y="304" type="curve" smooth="yes"/>
      <point x="611" y="517"/>
      <point x="471" y="624"/>
      <point x="323" y="624" type="curve" smooth="yes"/>
      <point x="175" y="624"/>
      <point x="34" y="513"/>
      <point x="34" y="304" type="curve" smooth="yes"/>
      <point x="34" y="91"/>
      <point x="174" y="-16"/>
    </contour>
    <contour>
      <point x="323" y="34" type="curve" smooth="yes"/>
      <point x="219" y="34"/>
      <point x="176" y="155"/>
      <point x="176" y="304" type="curve" smooth="yes"/>
      <point x="176" y="451"/>
      <point x="219" y="573"/>
      <point x="323" y="573" type="curve" smooth="yes"/>
      <point x="427" y="573"/>
      <point x="470" y="451"/>
      <point x="470" y="304" type="curve" smooth="yes"/>
      <point x="470" y="155"/>
      <point x="427" y="34"/>
    </contour>
  </outline>
</glyph>
<glyph name="R" format="2">
  <advance width="618"/>
  <unicode hex="0052"/>
  <anchor x="287" y="632" name="aboveUC"/>
  <anchor x="341" y="-20" name="belowLC"/>
  <outline>
    <contour>
      <point x="521" y="-11" type="curve" smooth="yes"/>
      <point x="559" y="-11"/>
      <point x="575" y="-9"/>
      <point x="611" y="0" type="curve"/>
      <point x="611" y="45" type="line"/>
      <point x="487" y="58" type="line"/>
      <point x="548" y="21" type="line"/>
      <point x="517" y="166" type="line" smooth="yes"/>
      <point x="497" y="260"/>
      <point x="460" y="302"/>
      <point x="340" y="307" type="curve"/>
      <point x="338" y="299" type="line"/>
      <point x="488" y="308"/>
      <point x="543" y="379"/>
      <point x="543" y="452" type="curve" smooth="yes"/>
      <point x="543" y="550"/>
      <point x="461" y="608"/>
      <point x="319" y="608" type="curve" smooth="yes"/>
      <point x="175" y="608" type="line"/>
      <point x="175" y="558" type="line"/>
      <point x="292" y="558" type="line" smooth="yes"/>
      <point x="374" y="558"/>
      <point x="414" y="520"/>
      <point x="414" y="446" type="curve" smooth="yes"/>
      <point x="414" y="381"/>
      <point x="380" y="328"/>
      <point x="287" y="328" type="curve" smooth="yes"/>
      <point x="176" y="328" type="line"/>
      <point x="176" y="280" type="line"/>
      <point x="276" y="280" type="line" smooth="yes"/>
      <point x="338" y="280"/>
      <point x="365" y="256"/>
      <point x="377" y="190" type="curve" smooth="yes"/>
      <point x="401" y="70" type="line" smooth="yes"/>
      <point x="410" y="8"/>
      <point x="449" y="-11"/>
    </contour>
    <contour>
      <point x="34" y="0" type="line"/>
      <point x="317" y="0" type="line"/>
      <point x="317" y="45" type="line"/>
      <point x="188" y="58" type="line"/>
      <point x="162" y="58" type="line"/>
      <point x="34" y="45" type="line"/>
    </contour>
    <contour>
      <point x="106" y="0" type="curve"/>
      <point x="242" y="0" type="line"/>
      <point x="240" y="94"/>
      <point x="240" y="190"/>
      <point x="240" y="290" type="curve" smooth="yes"/>
      <point x="240" y="318" type="line" smooth="yes"/>
      <point x="240" y="421"/>
      <point x="240" y="513"/>
      <point x="242" y="608" type="curve"/>
      <point x="106" y="608" type="line"/>
      <point x="109" y="513"/>
      <point x="109" y="417"/>
      <point x="109" y="322" type="curve" smooth="yes"/>
      <point x="109" y="285" type="line" smooth="yes"/>
      <point x="109" y="188"/>
      <point x="109" y="92"/>
    </contour>
    <contour>
      <point x="162" y="549" type="line"/>
      <point x="175" y="549" type="line"/>
      <point x="175" y="608" type="line"/>
      <point x="34" y="608" type="line"/>
      <point x="34" y="563" type="line"/>
    </contour>
  </outline>
</glyph>
<glyph name="f" format="2">
  <advance width="330"/>
  <unicode hex="0066"/>
  <anchor x="270" y="685" name="aboveLC"/>
  <anchor x="151" y="-20" name="belowLC"/>
  <outline>
    <contour>
      <point x="29" y="0" type="line"/>
      <point x="288" y="0" type="line"/>
      <point x="288" y="39" type="line"/>
      <point x="194" y="57" type="line"/>
      <point x="124" y="57" type="line"/>
      <point x="29" y="39" type="line"/>
    </contour>
    <contour>
      <point x="86" y="0" type="curve"/>
      <point x="215" y="0" type="line"/>
      <point x="213" y="64"/>
      <point x="212" y="128"/>
      <point x="212" y="193" type="curve" smooth="yes"/>
      <point x="212" y="398" type="line"/>
      <point x="205" y="528"/>
      <point x="217" y="592"/>
      <point x="255" y="631" type="curve" smooth="yes"/>
      <point x="271" y="646"/>
      <point x="289" y="655"/>
      <point x="309" y="655" type="curve" smooth="yes"/>
      <point x="320" y="655"/>
      <point x="333" y="650"/>
      <point x="342" y="644" type="curve"/>
      <point x="328" y="671" type="line"/>
      <point x="242" y="651" type="line"/>
      <point x="272" y="619" type="line" smooth="yes"/>
      <point x="296" y="582"/>
      <point x="321" y="565"/>
      <point x="349" y="565" type="curve" smooth="yes"/>
      <point x="388" y="565"/>
      <point x="411" y="589"/>
      <point x="411" y="621" type="curve"/>
      <point x="401" y="665"/>
      <point x="357" y="681"/>
      <point x="309" y="681" type="curve" smooth="yes"/>
      <point x="259" y="681"/>
      <point x="204" y="664"/>
      <point x="161" y="621" type="curve" smooth="yes"/>
      <point x="117" y="577"/>
      <point x="99" y="527"/>
      <point x="90" y="436" type="curve"/>
      <point x="89" y="425" type="line"/>
      <point x="131" y="447" type="line"/>
      <point x="23" y="433" type="line"/>
      <point x="23" y="383" type="line"/>
      <point x="89" y="383" type="line"/>
      <point x="89" y="193" type="line" smooth="yes"/>
      <point x="89" y="128"/>
      <point x="88" y="64"/>
    </contour>
    <contour>
      <point x="150" y="383" type="line"/>
      <point x="318" y="383" type="line"/>
      <point x="318" y="441" type="line"/>
      <point x="150" y="441" type="line"/>
    </contour>
  </outline>
</glyph>
<glyph name="i" format="2">
  <advance width="285"/>
  <unicode hex="0069"/>
  <anchor x="147" y="659" name="aboveLC"/>
  <anchor x="150" y="-20" name="belowLC"/>
  <anchor x="178" y="0" name="ogonek"/>
  <outline>
    <contour>
      <point x="28" y="0" type="line"/>
      <point x="263" y="0" type="line"/>
      <point x="263" y="39" type="line"/>
      <point x="172" y="57" type="line"/>
      <point x="118" y="57" type="line"/>
      <point x="28" y="39" type="line"/>
    </contour>
    <contour>
      <point x="86" y="136"/>
      <point x="85" y="41"/>
      <point x="83" y="0" type="curve"/>
      <point x="211" y="0" type="line"/>
      <point x="209" y="41"/>
      <point x="208" y="136"/>
      <point x="208" y="193" type="curve" smooth="yes"/>
      <point x="208" y="314" type="line"/>
      <point x="211" y="446" type="line"/>
      <point x="196" y="455" type="line"/>
      <point x="21" y="396" type="line"/>
      <point x="21" y="360" type="line"/>
      <point x="83" y="352" type="line"/>
      <point x="85" y="315"/>
      <point x="86" y="287"/>
      <point x="86" y="236" type="curve" smooth="yes"/>
      <point x="86" y="193" type="line" smooth="yes"/>
    </contour>
    <contour>
      <point x="147" y="534" type="curve" smooth="yes"/>
      <point x="186" y="534"/>
      <point x="218" y="563"/>
      <point x="218" y="602" type="curve" smooth="yes"/>
      <point x="218" y="644"/>
      <point x="186" y="671"/>
      <point x="147" y="671" type="curve" smooth="yes"/>
      <point x="105" y="671"/>
      <point x="74" y="644"/>
      <point x="74" y="602" type="curve" smooth="yes"/>
      <point x="74" y="563"/>
      <point x="105" y="534"/>
    </contour>
  </outline>
</glyph>
<glyph name="k" format="2">
  <advance width="534"/>
  <unicode hex="006B"/>
  <anchor x="144" y="667" name="aboveLC"/>
  <anchor x="296" y="-20" name="belowLC"/>
  <outline>
    <contour>
      <point x="23" y="0" type="line"/>
      <point x="265" y="0" type="line"/>
      <point x="265" y="39" type="line"/>
      <point x="169" y="57" type="line"/>
      <point x="115" y="57" type="line"/>
      <point x="23" y="39" type="line"/>
    </contour>
    <contour>
      <point x="83" y="136"/>
      <point x="82" y="46"/>
      <point x="80" y="0" type="curve"/>
      <point x="210" y="0" type="line"/>
      <point x="208" y="46"/>
      <point x="207" y="136"/>
      <point x="207" y="197" type="curve" smooth="yes"/>
      <point x="207" y="534" type="line"/>
      <point x="211" y="663" type="line"/>
      <point x="196" y="672" type="line"/>
      <point x="20" y="631" type="line"/>
      <point x="20" y="594" type="line"/>
      <point x="83" y="585" type="line"/>
      <point x="83" y="193" type="line" smooth="yes"/>
    </contour>
    <contour>
      <point x="143" y="119" type="line"/>
      <point x="478" y="441" type="line"/>
      <point x="411" y="441" type="line"/>
      <point x="143" y="175" type="line"/>
    </contour>
    <contour>
      <point x="367" y="0" type="line"/>
      <point x="533" y="0" type="line"/>
      <point x="533" y="39" type="line"/>
      <point x="474" y="52" type="line"/>
      <point x="327" y="322" type="line"/>
      <point x="241" y="241" type="line"/>
    </contour>
    <contour>
      <point x="289" y="402" type="line"/>
      <point x="383" y="385" type="line"/>
      <point x="406" y="388" type="line"/>
      <point x="508" y="402" type="line"/>
      <point x="508" y="441" type="line"/>
      <point x="290" y="441" type="line"/>
    </contour>
  </outline>
</glyph>
<glyph name="q" format="2">
  <advance width="528"/>
  <unicode hex="0071"/>
  <anchor x="292" y="471" name="aboveLC"/>
  <anchor x="402" y="-226" name="belowLC"/>
  <outline>
    <contour>
      <point x="276" y="-212" type="line"/>
      <point x="523" y="-212" type="line"/>
      <point x="523" y="-172" type="line"/>
      <point x="433" y="-154" type="line"/>
      <point x="367" y="-154" type="line"/>
      <point x="276" y="-172" type="line"/>
    </contour>
    <contour>
      <point x="31" y="71"/>
      <point x="109" y="-12"/>
      <point x="216" y="-12" type="curve" smooth="yes"/>
      <point x="279" y="-12"/>
      <point x="328" y="14"/>
      <point x="368" y="79" type="curve"/>
      <point x="389" y="79" type="line"/>
      <point x="379" y="133" type="line"/>
      <point x="345" y="86"/>
      <point x="313" y="57"/>
      <point x="269" y="57" type="curve" smooth="yes"/>
      <point x="207" y="57"/>
      <point x="162" y="110"/>
      <point x="162" y="218" type="curve" smooth="yes"/>
      <point x="162" y="332"/>
      <point x="209" y="386"/>
      <point x="271" y="386" type="curve" smooth="yes"/>
      <point x="304" y="386"/>
      <point x="339" y="370"/>
      <point x="382" y="322" type="curve"/>
      <point x="391" y="376" type="line"/>
      <point x="372" y="376" type="line"/>
      <point x="330" y="433"/>
      <point x="286" y="455"/>
      <point x="234" y="455" type="curve" smooth="yes"/>
      <point x="124" y="455"/>
      <point x="31" y="364"/>
      <point x="31" y="216" type="curve" smooth="yes"/>
    </contour>
    <contour>
      <point x="345" y="-82"/>
      <point x="345" y="-148"/>
      <point x="343" y="-212" type="curve"/>
      <point x="469" y="-212" type="line"/>
      <point x="467" y="-148"/>
      <point x="466" y="-82"/>
      <point x="466" y="-18" type="curve" smooth="yes"/>
      <point x="466" y="322" type="line"/>
      <point x="469" y="446" type="line"/>
      <point x="447" y="455" type="line"/>
      <point x="343" y="391" type="line"/>
      <point x="343" y="76" type="line"/>
      <point x="345" y="63" type="line"/>
      <point x="345" y="-18" type="line" smooth="yes"/>
    </contour>
  </outline>
</glyph>
<glyph name="braceleft" format="2">
  <advance width="311"/>
  <unicode hex="007B"/>
  <outline>
    <contour>
      <point x="36" y="232" type="line"/>
      <point x="114" y="218"/>
      <point x="138" y="194"/>
      <point x="138" y="154" type="curve" smooth="yes"/>
      <point x="138" y="96"/>
      <point x="91" y="43"/>
      <point x="91" y="-30" type="curve" smooth="yes"/>
      <point x="91" y="-108"/>
      <point x="155" y="-146"/>
      <point x="250" y="-146" type="curve" smooth="yes"/>
      <point x="284" y="-146" type="line"/>
      <point x="284" y="-101" type="line"/>
      <point x="259" y="-98" type="line" smooth="yes"/>
      <point x="210" y="-92"/>
      <point x="187" y="-72"/>
      <point x="187" y="-26" type="curve" smooth="yes"/>
      <point x="187" y="31"/>
      <point x="211" y="91"/>
      <point x="211" y="136" type="curve" smooth="yes"/>
      <point x="211" y="208"/>
      <point x="166" y="260"/>
      <point x="69" y="264" type="curve"/>
      <point x="69" y="246" type="line"/>
      <point x="166" y="251"/>
      <point x="211" y="302"/>
      <point x="211" y="375" type="curve" smooth="yes"/>
      <point x="211" y="420"/>
      <point x="187" y="480"/>
      <point x="187" y="538" type="curve" smooth="yes"/>
      <point x="187" y="584"/>
      <point x="210" y="604"/>
      <point x="259" y="609" type="curve" smooth="yes"/>
      <point x="284" y="612" type="line"/>
      <point x="284" y="657" type="line"/>
      <point x="250" y="657" type="line" smooth="yes"/>
      <point x="155" y="657"/>
      <point x="91" y="620"/>
      <point x="91" y="541" type="curve" smooth="yes"/>
      <point x="91" y="468"/>
      <point x="138" y="414"/>
      <point x="138" y="356" type="curve" smooth="yes"/>
      <point x="138" y="317"/>
      <point x="114" y="292"/>
      <point x="36" y="278" type="curve"/>
    </contour>
  </outline>
</glyph>
<glyph name="sterling" format="2">
  <advance width="485"/>
  <unicode hex="00A3"/>
  <outline>
    <contour>
      <point x="48" y="253" type="line"/>
      <point x="372" y="253" type="line"/>
      <point x="372" y="303" type="line"/>
      <point x="48" y="303" type="line"/>
    </contour>
    <contour>
      <point x="38" y="0" type="line"/>
      <point x="447" y="0" type="line"/>
      <point x="447" y="101" type="line"/>
      <point x="105" y="101" type="line"/>
      <point x="100" y="79" type="line"/>
      <point x="172" y="107"/>
      <point x="209" y="157"/>
      <point x="214" y="234" type="curve" smooth="yes"/>
      <point x="220" y="308"/>
      <point x="192" y="360"/>
      <point x="192" y="439" type="curve" smooth="yes"/>
      <point x="192" y="514"/>
      <point x="232" y="552"/>
      <point x="293" y="552" type="curve" smooth="yes"/>
      <point x="312" y="552"/>
      <point x="338" y="547"/>
      <point x="375" y="533" type="curve"/>
      <point x="310" y="565" type="line"/>
      <point x="325" y="494" type="line" smooth="yes"/>
      <point x="335" y="437"/>
      <point x="359" y="423"/>
      <point x="391" y="423" type="curve" smooth="yes"/>
      <point x="414" y="423"/>
      <point x="434" y="434"/>
      <point x="441" y="461" type="curve"/>
      <point x="436" y="544"/>
      <point x="368" y="598"/>
      <point x="270" y="598" type="curve" smooth="yes"/>
      <point x="164" y="598"/>
      <point x="78" y="537"/>
      <point x="78" y="433" type="curve" smooth="yes"/>
      <point x="78" y="337"/>
      <point x="133" y="310"/>
      <point x="133" y="226" type="curve" smooth="yes"/>
      <point x="133" y="168"/>
      <point x="98" y="107"/>
      <point x="38" y="72" type="curve"/>
    </contour>
  </outline>
</glyph>
<glyph name="brokenbar" format="2">
  <advance width="243"/>
  <unicode hex="00A6"/>
  <outline>
    <contour>
      <point x="82" y="-230" type="line"/>
      <point x="161" y="-230" type="line"/>
      <point x="161" y="184" type="line"/>
      <point x="82" y="184" type="line"/>
    </contour>
    <contour>
      <point x="161" y="294" type="line"/>
      <point x="161" y="690" type="line"/>
      <point x="82" y="690" type="line"/>
      <point x="82" y="294" type="line"/>
    </contour>
  </outline>
</glyph>
<glyph name="dieresis" format="2">
  <advance width="368"/>
  <unicode hex="00A8"/>
  <anchor x="184" y="471" name="_aboveLC"/>
  <anchor x="184" y="648" name="aboveLC"/>
  <outline>
    <contour>
      <point x="78" y="535" type="curve" smooth="yes"/>
      <point x="114" y="535"/>
      <point x="143" y="559"/>
      <point x="143" y="597" type="curve" smooth="yes"/>
      <point x="143" y="634"/>
      <point x="114" y="659"/>
      <point x="78" y="659" type="curve" smooth="yes"/>
      <point x="44" y="659"/>
      <point x="13" y="634"/>
      <point x="13" y="597" type="curve" smooth="yes"/>
      <point x="13" y="559"/>
      <point x="44" y="535"/>
    </contour>
    <contour>
      <point x="289" y="535" type="curve" smooth="yes"/>
      <point x="324" y="535"/>
      <point x="354" y="559"/>
      <point x="354" y="597" type="curve" smooth="yes"/>
      <point x="354" y="634"/>
      <point x="324" y="659"/>
      <point x="289" y="659" type="curve" smooth="yes"/>
      <point x="254" y="659"/>
      <point x="224" y="634"/>
      <point x="224" y="597" type="curve" smooth="yes"/>
      <point x="224" y="559"/>
      <point x="254" y="535"/>
    </contour>
  </outline>
</glyph>
<glyph name="acute" format="2">
  <advance width="368"/>
  <unicode hex="00B4"/>
  <anchor x="172" y="471" name="_aboveLC"/>
  <anchor x="172" y="708" name="aboveLC"/>
  <outline>
    <contour>
      <point x="110" y="534" type="curve"/>
      <point x="141" y="509" type="line"/>
      <point x="171" y="533"/>
      <point x="197" y="556"/>
      <point x="246" y="594" type="curve" smooth="yes"/>
      <point x="279" y="620"/>
      <point x="295" y="640"/>
      <point x="295" y="662" type="curve" smooth="yes"/>
      <point x="295" y="692"/>
      <point x="273" y="708"/>
      <point x="250" y="708" type="curve" smooth="yes"/>
      <point x="225" y="708"/>
      <point x="208" y="694"/>
      <point x="185" y="656" type="curve" smooth="yes"/>
      <point x="149" y="599"/>
      <point x="129" y="567"/>
    </contour>
  </outline>
</glyph>
<glyph name="periodcentered" format="2">
  <advance width="276"/>
  <unicode hex="00B7"/>
  <outline>
    <contour>
      <point x="138" y="230" type="curve" smooth="yes"/>
      <point x="181" y="230"/>
      <point x="215" y="265"/>
      <point x="215" y="307" type="curve" smooth="yes"/>
      <point x="215" y="349"/>
      <point x="181" y="385"/>
      <point x="138" y="385" type="curve" smooth="yes"/>
      <point x="94" y="385"/>
      <point x="60" y="349"/>
      <point x="60" y="307" type="curve" smooth="yes"/>
      <point x="60" y="265"/>
      <point x="94" y="230"/>
    </contour>
  </outline>
</glyph>
<glyph name="one.sups" format="2">
  <advance width="342"/>
  <unicode hex="00B9"/>
  <outline>
    <contour>
      <point x="69" y="717" type="line"/>
      <point x="69" y="681" type="line"/>
      <point x="135" y="689" type="line"/>
      <point x="135" y="382" type="line"/>
      <point x="223" y="382" type="line"/>
      <point x="223" y="745" type="line"/>
      <point x="215" y="751" type="line"/>
    </contour>
    <contour>
      <point x="219" y="426" type="line"/>
      <point x="139" y="426" type="line"/>
      <point x="59" y="411" type="line"/>
      <point x="59" y="382" type="line"/>
      <point x="295" y="382" type="line"/>
      <point x="295" y="411" type="line"/>
    </contour>
  </outline>
</glyph>
<glyph name="Adieresis" format="2">
  <advance width="617"/>
  <unicode hex="00C4"/>
  <anchor x="311" y="793" name="aboveUC"/>
  <anchor x="281" y="-20" name="belowLC"/>
  <anchor x="510" y="0" name="ogonek"/>
  <outline>
    <contour>
      <point x="7" y="0" type="line"/>
      <point x="208" y="0" type="line"/>
      <point x="208" y="45" type="line"/>
      <point x="117" y="58" type="line"/>
      <point x="100" y="58" type="line"/>
      <point x="7" y="45" type="line"/>
    </contour>
    <contour>
      <point x="62" y="0" type="line"/>
      <point x="113" y="0" type="line"/>
      <point x="272" y="481" type="line"/>
      <point x="428" y="0" type="line"/>
      <point x="563" y="0" type="line"/>
      <point x="355" y="609" type="line"/>
      <point x="272" y="609" type="line"/>
    </contour>
    <contour>
      <point x="155" y="184" type="line"/>
      <point x="437" y="184" type="line"/>
      <point x="419" y="233" type="line"/>
      <point x="171" y="233" type="line"/>
    </contour>
    <contour>
      <point x="333" y="0" type="line"/>
      <point x="606" y="0" type="line"/>
      <point x="606" y="44" type="line"/>
      <point x="489" y="57" type="line"/>
      <point x="441" y="57" type="line"/>
      <point x="333" y="44" type="line"/>
    </contour>
    <contour>
      <point x="201" y="665" type="curve" smooth="yes"/>
      <point x="235" y="665"/>
      <point x="264" y="688"/>
      <point x="264" y="724" type="curve" smooth="yes"/>
      <point x="264" y="760"/>
      <point x="235" y="783"/>
      <point x="201" y="783" type="curve" smooth="yes"/>
      <point x="168" y="783"/>
      <point x="138" y="760"/>
      <point x="138" y="724" type="curve" smooth="yes"/>
      <point x="138" y="688"/>
      <point x="168" y="665"/>
    </contour>
    <contour>
      <point x="422" y="665" type="curve" smooth="yes"/>
      <point x="456" y="665"/>
      <point x="485" y="688"/>
      <point x="485" y="724" type="curve" smooth="yes"/>
      <point x="485" y="760"/>
      <point x="456" y="783"/>
      <point x="422" y="783" type="curve" smooth="yes"/>
      <point x="389" y="783"/>
      <point x="359" y="760"/>
      <point x="359" y="724" type="curve" smooth="yes"/>
      <point x="359" y="688"/>
      <point x="389" y="665"/>
    </contour>
  </outline>
</glyph>
<glyph name="Ccedilla" format="2">
  <advance width="575"/>
  <unicode hex="00C7"/>
  <anchor x="337" y="632" name="aboveUC"/>
  <anchor x="348" y="0" name="baseLC"/>
  <anchor x="347" y="-20" name="belowLC"/>
  <outline>
    <contour>
      <point x="34" y="97"/>
      <point x="172" y="-16"/>
      <point x="351" y="-16" type="curve" smooth="yes"/>
      <point x="426" y="-16"/>
      <point x="490" y="1"/>
      <point x="542" y="30" type="curve"/>
      <point x="546" y="168" type="line"/>
      <point x="481" y="168" type="line"/>
      <point x="452" y="27" type="line"/>
      <point x="512" y="40" type="line"/>
      <point x="512" y="88" type="line"/>
      <point x="466" y="52"/>
      <point x="416" y="34"/>
      <point x="369" y="34" type="curve" smooth="yes"/>
      <point x="262" y="34"/>
      <point x="176" y="118"/>
      <point x="176" y="303" type="curve" smooth="yes"/>
      <point x="176" y="488"/>
      <point x="267" y="574"/>
      <point x="374" y="574" type="curve" smooth="yes"/>
      <point x="416" y="574"/>
      <point x="458" y="557"/>
      <point x="505" y="516" type="curve"/>
      <point x="505" y="568" type="line"/>
      <point x="444" y="581" type="line"/>
      <point x="473" y="439" type="line"/>
      <point x="539" y="439" type="line"/>
      <point x="535" y="578" type="line"/>
      <point x="478" y="610"/>
      <point x="419" y="624"/>
      <point x="356" y="624" type="curve" smooth="yes"/>
      <point x="181" y="624"/>
      <point x="34" y="511"/>
      <point x="34" y="304" type="curve" smooth="yes"/>
    </contour>
    <contour>
      <point x="305" y="-80" type="line"/>
      <point x="345" y="-85"/>
      <point x="365" y="-98"/>
      <point x="365" y="-126" type="curve" smooth="yes"/>
      <point x="365" y="-148"/>
      <point x="350" y="-162"/>
      <point x="315" y="-162" type="curve" smooth="yes"/>
      <point x="299" y="-162"/>
      <point x="285" y="-161"/>
      <point x="268" y="-157" type="curve"/>
      <point x="260" y="-194" type="line"/>
      <point x="277" y="-201"/>
      <point x="299" y="-206"/>
      <point x="327" y="-206" type="curve" smooth="yes"/>
      <point x="404" y="-206"/>
      <point x="444" y="-172"/>
      <point x="444" y="-126" type="curve" smooth="yes"/>
      <point x="444" y="-81"/>
      <point x="403" y="-51"/>
      <point x="327" y="-46" type="curve"/>
      <point x="352" y="-68" type="line"/>
      <point x="361" y="3" type="line"/>
      <point x="318" y="3" type="line"/>
    </contour>
  </outline>
</glyph>
<glyph name="Ecircumflex" format="2">
  <advance width="550"/>
  <unicode hex="00CA"/>
  <anchor x="302" y="807" name="aboveUC"/>
  <anchor x="310" y="-20" name="belowLC"/>
  <anchor x="429" y="0" name="ogonek"/>
  <outline>
    <contour>
      <point x="34" y="0" type="line"/>
      <point x="175" y="0" type="line"/>
      <point x="175" y="58" type="line"/>
      <point x="162" y="58" type="line"/>
      <point x="34" y="45" type="line"/>
    </contour>
    <contour>
      <point x="109" y="188"/>
      <point x="109" y="92"/>
      <point x="106" y="0" type="curve"/>
      <point x="244" y="0" type="line"/>
      <point x="241" y="94"/>
      <point x="241" y="190"/>
      <point x="241" y="291" type="curve" smooth="yes"/>
      <point x="241" y="322" type="line" smooth="yes"/>
      <point x="241" y="419"/>
      <point x="241" y="515"/>
      <point x="244" y="608" type="curve"/>
      <point x="106" y="608" type="line"/>
      <point x="109" y="513"/>
      <point x="109" y="417"/>
      <point x="109" y="322" type="curve" smooth="yes"/>
      <point x="109" y="285" type="line" smooth="yes"/>
    </contour>
    <contour>
      <point x="175" y="0" type="line"/>
      <point x="517" y="0" type="line"/>
      <point x="524" y="160" type="line"/>
      <point x="455" y="160" type="line"/>
      <point x="432" y="22" type="line"/>
      <point x="464" y="49" type="line"/>
      <point x="175" y="49" type="line"/>
    </contour>
    <contour>
      <point x="175" y="287" type="line"/>
      <point x="379" y="287" type="line"/>
      <point x="379" y="338" type="line"/>
      <point x="175" y="338" type="line"/>
    </contour>
    <contour>
      <point x="365" y="210" type="line"/>
      <point x="414" y="210" type="line"/>
      <point x="414" y="415" type="line"/>
      <point x="365" y="415" type="line"/>
      <point x="351" y="323" type="line"/>
      <point x="351" y="307" type="line"/>
    </contour>
    <contour>
      <point x="34" y="563" type="line"/>
      <point x="162" y="549" type="line"/>
      <point x="175" y="549" type="line"/>
      <point x="175" y="608" type="line"/>
      <point x="34" y="608" type="line"/>
    </contour>
    <contour>
      <point x="437" y="448" type="line"/>
      <point x="506" y="448" type="line"/>
      <point x="499" y="608" type="line"/>
      <point x="175" y="608" type="line"/>
      <point x="175" y="558" type="line"/>
      <point x="446" y="558" type="line"/>
      <point x="414" y="586" type="line"/>
    </contour>
    <contour>
      <point x="328" y="798" type="line"/>
      <point x="276" y="798" type="line"/>
      <point x="144" y="670" type="line"/>
      <point x="169" y="641" type="line"/>
      <point x="345" y="738" type="line"/>
      <point x="260" y="738" type="line"/>
      <point x="436" y="641" type="line"/>
      <point x="460" y="670" type="line"/>
    </contour>
  </outline>
</glyph>
<glyph name="Oacute" format="2">
  <advance width="646"/>
  <unicode hex="00D3"/>
  <anchor x="342" y="810" name="aboveUC"/>
  <anchor x="323" y="-20" name="belowLC"/>
  <anchor x="459" y="609" name="hornLC"/>
  <anchor x="406" y="0" name="ogonek"/>
  <outline>
    <contour>
      <point x="323" y="-16" type="curve" smooth="yes"/>
      <point x="472" y="-16"/>
      <point x="611" y="95"/>
      <point x="611" y="304" type="curve" smooth="yes"/>
      <point x="611" y="517"/>
      <point x="471" y="624"/>
      <point x="323" y="624" type="curve" smooth="yes"/>
      <point x="175" y="624"/>
      <point x="34" y="513"/>
      <point x="34" y="304" type="curve" smooth="yes"/>
      <point x="34" y="91"/>
      <point x="174" y="-16"/>
    </contour>
    <contour>
      <point x="323" y="34" type="curve" smooth="yes"/>
      <point x="219" y="34"/>
      <point x="176" y="155"/>
      <point x="176" y="304" type="curve" smooth="yes"/>
      <point x="176" y="451"/>
      <point x="219" y="573"/>
      <point x="323" y="573" type="curve" smooth="yes"/>
      <point x="427" y="573"/>
      <point x="470" y="451"/>
      <point x="470" y="304" type="curve" smooth="yes"/>
      <point x="470" y="155"/>
      <point x="427" y="34"/>
    </contour>
    <contour>
      <point x="266" y="680" type="curve"/>
      <point x="288" y="648" type="line"/>
      <point x="333" y="668"/>
      <point x="378" y="690"/>
      <point x="423" y="711" type="curve" smooth="yes"/>
      <point x="463" y="730"/>
      <point x="472" y="751"/>
      <point x="472" y="769" type="curve" smooth="yes"/>
      <point x="472" y="791"/>
      <point x="453" y="810"/>
      <point x="428" y="810" type="curve" smooth="yes"/>
      <point x="408" y="810"/>
      <point x="391" y="801"/>
      <point x="363" y="774" type="curve" smooth="yes"/>
      <point x="332" y="744"/>
      <point x="299" y="712"/>
    </contour>
  </outline>
</glyph>
<glyph name="germandbls" format="2">
  <advance width="586"/>
  <unicode hex="00DF"/>
  <outline>
    <contour>
      <point x="151" y="57" type="line"/>
      <point x="119" y="57" type="line"/>
      <point x="23" y="39" type="line"/>
      <point x="23" y="0" type="line"/>
      <point x="151" y="0" type="line"/>
    </contour>
    <contour>
      <point x="83" y="193" type="line" smooth="yes"/>
      <point x="83" y="128"/>
      <point x="82" y="64"/>
      <point x="80" y="0" type="curve"/>
      <point x="210" y="0" type="line"/>
      <point x="208" y="64"/>
      <point x="207" y="128"/>
      <point x="207" y="193" type="curve" smooth="yes"/>
      <point x="207" y="406" type="line" smooth="yes"/>
      <point x="207" y="532"/>
      <point x="218" y="579"/>
      <point x="247" y="609" type="curve" smooth="yes"/>
      <point x="266" y="628"/>
      <point x="288" y="635"/>
      <point x="320" y="635" type="curve" smooth="yes"/>
      <point x="379" y="635"/>
      <point x="410" y="594"/>
      <point x="410" y="537" type="curve" smooth="yes"/>
      <point x="410" y="496"/>
      <point x="397" y="468"/>
      <point x="355" y="433" type="curve" smooth="yes"/>
      <point x="306" y="393"/>
      <point x="280" y="364"/>
      <point x="280" y="314" type="curve" smooth="yes"/>
      <point x="280" y="246"/>
      <point x="322" y="217"/>
      <point x="386" y="185" type="curve" smooth="yes"/>
      <point x="448" y="153"/>
      <point x="464" y="133"/>
      <point x="464" y="98" type="curve" smooth="yes"/>
      <point x="464" y="57"/>
      <point x="437" y="34"/>
      <point x="383" y="34" type="curve" smooth="yes"/>
      <point x="352" y="34"/>
      <point x="324" y="38"/>
      <point x="281" y="59" type="curve"/>
      <point x="348" y="9" type="line"/>
      <point x="324" y="127" type="line"/>
      <point x="261" y="127" type="line"/>
      <point x="261" y="13" type="line"/>
      <point x="300" y="-5"/>
      <point x="345" y="-12"/>
      <point x="390" y="-12" type="curve" smooth="yes"/>
      <point x="506" y="-12"/>
      <point x="571" y="46"/>
      <point x="571" y="131" type="curve" smooth="yes"/>
      <point x="571" y="200"/>
      <point x="540" y="238"/>
      <point x="459" y="283" type="curve" smooth="yes"/>
      <point x="390" y="320"/>
      <point x="377" y="333"/>
      <point x="377" y="359" type="curve" smooth="yes"/>
      <point x="377" y="380"/>
      <point x="387" y="400"/>
      <point x="438" y="431" type="curve" smooth="yes"/>
      <point x="494" y="465"/>
      <point x="519" y="498"/>
      <point x="519" y="548" type="curve" smooth="yes"/>
      <point x="519" y="623"/>
      <point x="450" y="681"/>
      <point x="333" y="681" type="curve" smooth="yes"/>
      <point x="264" y="681"/>
      <point x="198" y="661"/>
      <point x="152" y="615" type="curve" smooth="yes"/>
      <point x="108" y="570"/>
      <point x="83" y="520"/>
      <point x="83" y="402" type="curve" smooth="yes"/>
    </contour>
  </outline>
</glyph>
<glyph name="adieresis" format="2">
  <advance width="482"/>
  <unicode hex="00E4"/>
  <anchor x="238" y="648" name="aboveLC"/>
  <anchor x="230" y="-20" name="belowLC"/>
  <anchor x="418" y="0" name="ogonek"/>
  <outline>
    <contour>
      <point x="33" y="27"/>
      <point x="83" y="-12"/>
      <point x="154" y="-12" type="curve" smooth="yes"/>
      <point x="218" y="-12"/>
      <point x="247" y="13"/>
      <point x="295" y="64" type="curve"/>
      <point x="330" y="64" type="line"/>
      <point x="319" y="115" type="line"/>
      <point x="250" y="64"/>
      <point x="234" y="56"/>
      <point x="211" y="56" type="curve" smooth="yes"/>
      <point x="177" y="56"/>
      <point x="150" y="77"/>
      <point x="150" y="124" type="curve" smooth="yes"/>
      <point x="150" y="161"/>
      <point x="172" y="194"/>
      <point x="227" y="217" type="curve" smooth="yes"/>
      <point x="253" y="228"/>
      <point x="305" y="242"/>
      <point x="347" y="253" type="curve"/>
      <point x="347" y="290" type="line"/>
      <point x="303" y="280"/>
      <point x="240" y="263"/>
      <point x="202" y="252" type="curve" smooth="yes"/>
      <point x="66" y="208"/>
      <point x="33" y="164"/>
      <point x="33" y="103" type="curve" smooth="yes"/>
    </contour>
    <contour>
      <point x="381" y="-11" type="curve" smooth="yes"/>
      <point x="429" y="-11"/>
      <point x="460" y="5"/>
      <point x="482" y="50" type="curve"/>
      <point x="460" y="68" type="line"/>
      <point x="448" y="53"/>
      <point x="440" y="47"/>
      <point x="429" y="47" type="curve" smooth="yes"/>
      <point x="414" y="47"/>
      <point x="404" y="57"/>
      <point x="404" y="83" type="curve" smooth="yes"/>
      <point x="404" y="286" type="line" smooth="yes"/>
      <point x="404" y="407"/>
      <point x="357" y="455"/>
      <point x="247" y="455" type="curve" smooth="yes"/>
      <point x="127" y="455"/>
      <point x="55" y="405"/>
      <point x="46" y="331" type="curve"/>
      <point x="52" y="303"/>
      <point x="71" y="288"/>
      <point x="102" y="288" type="curve" smooth="yes"/>
      <point x="134" y="288"/>
      <point x="159" y="310"/>
      <point x="162" y="360" type="curve" smooth="yes"/>
      <point x="174" y="429" type="line"/>
      <point x="120" y="395" type="line"/>
      <point x="158" y="407"/>
      <point x="183" y="410"/>
      <point x="205" y="410" type="curve" smooth="yes"/>
      <point x="264" y="410"/>
      <point x="283" y="386"/>
      <point x="283" y="301" type="curve" smooth="yes"/>
      <point x="283" y="78" type="line"/>
      <point x="288" y="22"/>
      <point x="322" y="-11"/>
    </contour>
    <contour>
      <point x="133" y="535" type="curve" smooth="yes"/>
      <point x="168" y="535"/>
      <point x="198" y="559"/>
      <point x="198" y="597" type="curve" smooth="yes"/>
      <point x="198" y="634"/>
      <point x="168" y="659"/>
      <point x="133" y="659" type="curve" smooth="yes"/>
      <point x="98" y="659"/>
      <point x="68" y="634"/>
      <point x="68" y="597" type="curve" smooth="yes"/>
      <point x="68" y="559"/>
      <point x="98" y="535"/>
    </contour>
    <contour>
      <point x="344" y="535" type="curve" smooth="yes"/>
      <point x="379" y="535"/>
      <point x="409" y="559"/>
      <point x="409" y="597" type="curve" smooth="yes"/>
      <point x="409" y="634"/>
      <point x="379" y="659"/>
      <point x="344" y="659" type="curve" smooth="yes"/>
      <point x="310" y="659"/>
      <point x="278" y="634"/>
      <point x="278" y="597" type="curve" smooth="yes"/>
      <point x="278" y="559"/>
      <point x="310" y="535"/>
    </contour>
  </outline>
</glyph>
<glyph name="edieresis" format="2">
  <advance width="475"/>
  <unicode hex="00EB"/>
  <anchor x="256" y="648" name="aboveLC"/>
  <anchor x="264" y="-20" name="belowLC"/>
  <anchor x="327" y="0" name="ogonek"/>
  <outline>
    <contour>
      <point x="31" y="73"/>
      <point x="122" y="-12"/>
      <point x="253" y="-12" type="curve" smooth="yes"/>
      <point x="340" y="-12"/>
      <point x="403" y="23"/>
      <point x="439" y="93" type="curve"/>
      <point x="411" y="119" type="line"/>
      <point x="381" y="87"/>
      <point x="346" y="65"/>
      <point x="294" y="65" type="curve" smooth="yes"/>
      <point x="218" y="65"/>
      <point x="161" y="119"/>
      <point x="161" y="232" type="curve" smooth="yes"/>
      <point x="161" y="365"/>
      <point x="207" y="410"/>
      <point x="252" y="410" type="curve" smooth="yes"/>
      <point x="293" y="410"/>
      <point x="326" y="374"/>
      <point x="326" y="316" type="curve" smooth="yes"/>
      <point x="326" y="280"/>
      <point x="315" y="262"/>
      <point x="271" y="262" type="curve" smooth="yes"/>
      <point x="84" y="262" type="line"/>
      <point x="84" y="217" type="line"/>
      <point x="437" y="217" type="line"/>
      <point x="441" y="230"/>
      <point x="443" y="246"/>
      <point x="443" y="266" type="curve" smooth="yes"/>
      <point x="443" y="378"/>
      <point x="372" y="455"/>
      <point x="259" y="455" type="curve" smooth="yes"/>
      <point x="142" y="455"/>
      <point x="31" y="368"/>
      <point x="31" y="218" type="curve" smooth="yes"/>
    </contour>
    <contour>
      <point x="150" y="535" type="curve" smooth="yes"/>
      <point x="185" y="535"/>
      <point x="216" y="559"/>
      <point x="216" y="597" type="curve" smooth="yes"/>
      <point x="216" y="634"/>
      <point x="185" y="659"/>
      <point x="150" y="659" type="curve" smooth="yes"/>
      <point x="115" y="659"/>
      <point x="85" y="634"/>
      <point x="85" y="597" type="curve" smooth="yes"/>
      <point x="85" y="559"/>
      <point x="115" y="535"/>
    </contour>
    <contour>
      <point x="362" y="535" type="curve" smooth="yes"/>
      <point x="397" y="535"/>
      <point x="427" y="559"/>
      <point x="427" y="597" type="curve" smooth="yes"/>
      <point x="427" y="634"/>
      <point x="397" y="659"/>
      <point x="362" y="659" type="curve" smooth="yes"/>
      <point x="327" y="659"/>
      <point x="297" y="634"/>
      <point x="297" y="597" type="curve" smooth="yes"/>
      <point x="297" y="559"/>
      <point x="327" y="535"/>
    </contour>
  </outline>
</glyph>
<glyph name="igrave" format="2">
  <advance width="285"/>
  <unicode hex="00EC"/>
  <anchor x="138" y="690" name="aboveLC"/>
  <anchor x="147" y="-20" name="belowLC"/>
  <anchor x="179" y="0" name="ogonek"/>
  <outline>
    <contour>
      <point x="83" y="0" type="curve"/>
      <point x="212" y="0" type="line"/>
      <point x="210" y="41"/>
      <point x="209" y="136"/>
      <point x="209" y="193" type="curve" smooth="yes"/>
      <point x="209" y="314" type="line"/>
      <point x="212" y="446" type="line"/>
      <point x="197" y="455" type="line"/>
      <point x="22" y="396" type="line"/>
      <point x="22" y="360" type="line"/>
      <point x="83" y="352" type="line"/>
      <point x="85" y="315"/>
      <point x="86" y="287"/>
      <point x="86" y="236" type="curve" smooth="yes"/>
      <point x="86" y="193" type="line" smooth="yes"/>
      <point x="86" y="136"/>
      <point x="85" y="41"/>
    </contour>
    <contour>
      <point x="28" y="0" type="line"/>
      <point x="263" y="0" type="line"/>
      <point x="263" y="39" type="line"/>
      <point x="172" y="57" type="line"/>
      <point x="118" y="57" type="line"/>
      <point x="28" y="39" type="line"/>
    </contour>
    <contour>
      <point x="195" y="534" type="line"/>
      <point x="176" y="568"/>
      <point x="156" y="600"/>
      <point x="120" y="657" type="curve" smooth="yes"/>
      <point x="97" y="694"/>
      <point x="80" y="708"/>
      <point x="56" y="708" type="curve" smooth="yes"/>
      <point x="33" y="708"/>
      <point x="11" y="692"/>
      <point x="11" y="662" type="curve" smooth="yes"/>
      <point x="11" y="640"/>
      <point x="26" y="621"/>
      <point x="59" y="595" type="curve" smooth="yes"/>
      <point x="108" y="556"/>
      <point x="136" y="533"/>
      <point x="164" y="509" type="curve"/>
    </contour>
  </outline>
</glyph>
<glyph name="eth" format="2">
  <advance width="506"/>
  <unicode hex="00F0"/>
  <outline>
    <contour>
      <point x="244" y="-12" type="curve" smooth="yes"/>
      <point x="373" y="-12"/>
      <point x="472" y="76"/>
      <point x="472" y="256" type="curve" smooth="yes"/>
      <point x="472" y="462"/>
      <point x="333" y="613"/>
      <point x="139" y="681" type="curve"/>
      <point x="117" y="639" type="line"/>
      <point x="250" y="568"/>
      <point x="305" y="502"/>
      <point x="345" y="347" type="curve"/>
      <point x="375" y="357" type="line"/>
      <point x="353" y="411"/>
      <point x="306" y="441"/>
      <point x="248" y="441" type="curve" smooth="yes"/>
      <point x="137" y="441"/>
      <point x="31" y="361"/>
      <point x="31" y="218" type="curve" smooth="yes"/>
      <point x="31" y="64"/>
      <point x="138" y="-12"/>
    </contour>
    <contour>
      <point x="253" y="33" type="curve" smooth="yes"/>
      <point x="196" y="33"/>
      <point x="164" y="95"/>
      <point x="164" y="213" type="curve" smooth="yes"/>
      <point x="164" y="333"/>
      <point x="197" y="396"/>
      <point x="253" y="396" type="curve" smooth="yes"/>
      <point x="312" y="396"/>
      <point x="346" y="335"/>
      <point x="346" y="221" type="curve" smooth="yes"/>
      <point x="346" y="97"/>
      <point x="312" y="33"/>
    </contour>
    <contour>
      <point x="128" y="471" type="line"/>
      <point x="453" y="628" type="line"/>
      <point x="432" y="673" type="line"/>
      <point x="106" y="516" type="line"/>
    </contour>
  </outline>
</glyph>
<glyph name="ucircumflex" format="2">
  <advance width="551"/>
  <unicode hex="00FB"/>
  <anchor x="275" y="690" name="aboveLC"/>
  <anchor x="282" y="-20" name="belowLC"/>
  <anchor x="457" y="430" name="hornLC"/>
  <anchor x="460" y="0" name="ogonek"/>
  <outline>
    <contour>
      <point x="71" y="31"/>
      <point x="122" y="-12"/>
      <point x="199" y="-12" type="curve" smooth="yes"/>
      <point x="269" y="-12"/>
      <point x="330" y="27"/>
      <point x="376" y="103" type="curve"/>
      <point x="392" y="103" type="line"/>
      <point x="374" y="141" type="line"/>
      <point x="340" y="100"/>
      <point x="295" y="68"/>
      <point x="255" y="68" type="curve" smooth="yes"/>
      <point x="218" y="68"/>
      <point x="197" y="89"/>
      <point x="197" y="154" type="curve" smooth="yes"/>
      <point x="197" y="310" type="line"/>
      <point x="202" y="439" type="line"/>
      <point x="189" y="449" type="line"/>
      <point x="19" y="427" type="line"/>
      <point x="19" y="391" type="line"/>
      <point x="103" y="372" type="line"/>
      <point x="76" y="398" type="line"/>
      <point x="73" y="152" type="line" smooth="yes"/>
    </contour>
    <contour>
      <point x="360" y="-9" type="line"/>
      <point x="528" y="0" type="line"/>
      <point x="528" y="39" type="line"/>
      <point x="475" y="50" type="line"/>
      <point x="475" y="310" type="line"/>
      <point x="478" y="439" type="line"/>
      <point x="465" y="449" type="line"/>
      <point x="299" y="425" type="line"/>
      <point x="299" y="391" type="line"/>
      <point x="354" y="379" type="line"/>
      <point x="351" y="99" type="line"/>
    </contour>
    <contour>
      <point x="396" y="501" type="line"/>
      <point x="425" y="529" type="line"/>
      <point x="299" y="690" type="line"/>
      <point x="251" y="690" type="line"/>
      <point x="126" y="529" type="line"/>
      <point x="154" y="501" type="line"/>
      <point x="317" y="633" type="line"/>
      <point x="232" y="633" type="line"/>
    </contour>
  </outline>
</glyph>
<glyph name="thorn" format="2">
  <advance width="539"/>
  <unicode hex="00FE"/>
  <anchor x="200" y="667" name="aboveLC"/>
  <anchor x="346" y="-11" name="belowLC"/>
  <outline>
    <contour>
      <point x="377" y="219" type="curve" smooth="yes"/>
      <point x="377" y="108"/>
      <point x="332" y="56"/>
      <point x="274" y="56" type="curve" smooth="yes"/>
      <point x="230" y="56"/>
      <point x="195" y="84"/>
      <point x="153" y="138" type="curve"/>
      <point x="145" y="122" type="line"/>
      <point x="188" y="26"/>
      <point x="240" y="-12"/>
      <point x="314" y="-12" type="curve" smooth="yes"/>
      <point x="419" y="-12"/>
      <point x="507" y="78"/>
      <point x="507" y="224" type="curve" smooth="yes"/>
      <point x="507" y="373"/>
      <point x="429" y="455"/>
      <point x="329" y="455" type="curve" smooth="yes"/>
      <point x="254" y="455"/>
      <point x="194" y="412"/>
      <point x="140" y="318" type="curve"/>
      <point x="149" y="302" type="line"/>
      <point x="190" y="345"/>
      <point x="233" y="384"/>
      <point x="276" y="384" type="curve" smooth="yes"/>
      <point x="336" y="384"/>
      <point x="377" y="332"/>
    </contour>
    <contour>
      <point x="174" y="-154" type="line"/>
      <point x="107" y="-154" type="line"/>
      <point x="14" y="-172" type="line"/>
      <point x="14" y="-212" type="line"/>
      <point x="264" y="-212" type="line"/>
      <point x="264" y="-172" type="line"/>
    </contour>
    <contour>
      <point x="198" y="370" type="line"/>
      <point x="195" y="382" type="line"/>
      <point x="195" y="534" type="line"/>
      <point x="199" y="663" type="line"/>
      <point x="184" y="672" type="line"/>
      <point x="11" y="631" type="line"/>
      <point x="11" y="594" type="line"/>
      <point x="74" y="586" type="line"/>
      <point x="74" y="-10" type="line" smooth="yes"/>
      <point x="74" y="-70"/>
      <point x="73" y="-136"/>
      <point x="71" y="-212" type="curve"/>
      <point x="198" y="-212" type="line"/>
      <point x="196" y="-136"/>
      <point x="195" y="-70"/>
      <point x="195" y="-10" type="curve" smooth="yes"/>
      <point x="195" y="65" type="line"/>
      <point x="198" y="74" type="line"/>
    </contour>
  </outline>
</glyph>
<glyph name="dotlessi" format="2">
  <advance width="285"/>
  <unicode hex="0131"/>
  <anchor x="143" y="471" name="aboveLC"/>
  <anchor x="147" y="-20" name="belowLC"/>
  <anchor x="179" y="0" name="ogonek"/>
  <outline>
    <contour>
      <point x="83" y="0" type="curve"/>
      <point x="212" y="0" type="line"/>
      <point x="210" y="41"/>
      <point x="209" y="136"/>
      <point x="209" y="193" type="curve" smooth="yes"/>
      <point x="209" y="314" type="line"/>
      <point x="212" y="446" type="line"/>
      <point x="197" y="455" type="line"/>
      <point x="22" y="396" type="line"/>
      <point x="22" y="360" type="line"/>
      <point x="83" y="352" type="line"/>
      <point x="85" y="315"/>
      <point x="86" y="287"/>
      <point x="86" y="236" type="curve" smooth="yes"/>
      <point x="86" y="193" type="line" smooth="yes"/>
      <point x="86" y="136"/>
      <point x="85" y="41"/>
    </contour>
    <contour>
      <point x="28" y="0" type="line"/>
      <point x="263" y="0" type="line"/>
      <point x="263" y="39" type="line"/>
      <point x="172" y="57" type="line"/>
      <point x="118" y="57" type="line"/>
      <point x="28" y="39" type="line"/>
    </contour>
  </outline>
</glyph>
<glyph name="Zcaron" format="2">
  <advance width="514"/>
  <unicode hex="017D"/>
  <anchor x="272" y="799" name="aboveUC"/>
  <anchor x="264" y="-20" name="belowLC"/>
  <outline>
    <contour>
      <point x="18" y="0" type="line"/>
      <point x="488" y="0" type="line"/>
      <point x="495" y="168" type="line"/>
      <point x="427" y="168" type="line"/>
      <point x="398" y="23" type="line"/>
      <point x="431" y="50" type="line"/>
      <point x="142" y="50" type="line"/>
      <point x="156" y="26" type="line"/>
      <point x="483" y="569" type="line"/>
      <point x="483" y="608" type="line"/>
      <point x="34" y="608" type="line"/>
      <point x="27" y="439" type="line"/>
      <point x="94" y="439" type="line"/>
      <point x="124" y="584" type="line"/>
      <point x="91" y="557" type="line"/>
      <point x="358" y="557" type="line"/>
      <point x="345" y="581" type="line"/>
      <point x="18" y="39" type="line"/>
    </contour>
    <contour>
      <point x="152" y="808" type="line"/>
      <point x="125" y="782" type="line"/>
      <point x="234" y="655" type="line"/>
      <point x="310" y="655" type="line"/>
      <point x="420" y="782" type="line"/>
      <point x="392" y="808" type="line"/>
      <point x="232" y="701" type="line"/>
      <point x="311" y="701" type="line"/>
    </contour>
  </outline>
</glyph>
<glyph name="florin" format="2">
  <advance width="485"/>
  <unicode hex="0192"/>
  <outline>
    <contour>
      <point x="99" y="313" type="line"/>
      <point x="413" y="313" type="line"/>
      <point x="413" y="363" type="line"/>
      <point x="99" y="363" type="line"/>
    </contour>
    <contour>
      <point x="304" y="328" type="line" smooth="yes"/>
      <point x="311" y="431"/>
      <point x="314" y="483"/>
      <point x="334" y="523" type="curve" smooth="yes"/>
      <point x="346" y="547"/>
      <point x="366" y="563"/>
      <point x="394" y="573" type="curve"/>
      <point x="356" y="571" type="line"/>
      <point x="379" y="523" type="line" smooth="yes"/>
      <point x="397" y="491"/>
      <point x="417" y="482"/>
      <point x="442" y="482" type="curve" smooth="yes"/>
      <point x="472" y="482"/>
      <point x="492" y="504"/>
      <point x="494" y="534" type="curve"/>
      <point x="483" y="571"/>
      <point x="444" y="598"/>
      <point x="382" y="598" type="curve" smooth="yes"/>
      <point x="342" y="598"/>
      <point x="299" y="583"/>
      <point x="269" y="553" type="curve" smooth="yes"/>
      <point x="221" y="505"/>
      <point x="202" y="441"/>
      <point x="194" y="328" type="curve" smooth="yes"/>
      <point x="184" y="196" type="line" smooth="yes"/>
      <point x="173" y="80"/>
      <point x="172" y="22"/>
      <point x="151" y="-20" type="curve" smooth="yes"/>
      <point x="139" y="-44"/>
      <point x="120" y="-59"/>
      <point x="92" y="-69" type="curve"/>
      <point x="130" y="-68" type="line"/>
      <point x="106" y="-20" type="line" smooth="yes"/>
      <point x="90" y="11"/>
      <point x="69" y="21"/>
      <point x="44" y="21" type="curve" smooth="yes"/>
      <point x="13" y="21"/>
      <point x="-6" y="0"/>
      <point x="-8" y="-31" type="curve"/>
      <point x="3" y="-68"/>
      <point x="42" y="-94"/>
      <point x="103" y="-94" type="curve" smooth="yes"/>
      <point x="144" y="-94"/>
      <point x="185" y="-81"/>
      <point x="220" y="-46" type="curve" smooth="yes"/>
      <point x="266" y="0"/>
      <point x="284" y="73"/>
      <point x="296" y="211" type="curve" smooth="yes"/>
    </contour>
  </outline>
</glyph>
<glyph name="colontriangularmod" format="2">
  <advance width="276"/>
  <unicode hex="02D0"/>
  <outline>
    <contour>
      <point x="51" y="445" type="line"/>
      <point x="132" y="305" type="line"/>
      <point x="143" y="305" type="line"/>
      <point x="224" y="445" type="line"/>
      <point x="218" y="455" type="line"/>
      <point x="57" y="455" type="line"/>
    </contour>
    <contour>
      <point x="51" y="10" type="line"/>
      <point x="57" y="0" type="line"/>
      <point x="218" y="0" type="line"/>
      <point x="224" y="10" type="line"/>
      <point x="143" y="149" type="line"/>
      <point x="132" y="149" type="line"/>
    </contour>
  </outline>
</glyph>
<glyph name="dotaccent" format="2">
  <advance width="368"/>
  <unicode hex="02D9"/>
  <anchor x="184" y="471" name="_aboveLC"/>
  <anchor x="184" y="665" name="aboveLC"/>
  <outline>
    <contour>
      <point x="184" y="529" type="curve" smooth="yes"/>
      <point x="224" y="529"/>
      <point x="256" y="558"/>
      <point x="256" y="598" type="curve" smooth="yes"/>
      <point x="256" y="638"/>
      <point x="224" y="667"/>
      <point x="184" y="667" type="curve" smooth="yes"/>
      <point x="143" y="667"/>
      <point x="111" y="638"/>
      <point x="111" y="598" type="curve" smooth="yes"/>
      <point x="111" y="558"/>
      <point x="143" y="529"/>
    </contour>
  </outline>
</glyph>
<glyph name="ring" format="2">
  <advance width="368"/>
  <unicode hex="02DA"/>
  <anchor x="184" y="471" name="_aboveLC"/>
  <anchor x="184" y="719" name="aboveLC"/>
  <outline>
    <contour>
      <point x="184" y="551" type="curve" smooth="yes"/>
      <point x="149" y="551"/>
      <point x="130" y="581"/>
      <point x="130" y="609" type="curve" smooth="yes"/>
      <point x="130" y="638"/>
      <point x="149" y="667"/>
      <point x="184" y="667" type="curve" smooth="yes"/>
      <point x="218" y="667"/>
      <point x="237" y="638"/>
      <point x="237" y="609" type="curve" smooth="yes"/>
      <point x="237" y="581"/>
      <point x="218" y="551"/>
    </contour>
    <contour>
      <point x="184" y="507" type="curve" smooth="yes"/>
      <point x="241" y="507"/>
      <point x="290" y="545"/>
      <point x="290" y="609" type="curve" smooth="yes"/>
      <point x="290" y="674"/>
      <point x="241" y="710"/>
      <point x="184" y="710" type="curve" smooth="yes"/>
      <point x="126" y="710"/>
      <point x="77" y="671"/>
      <point x="77" y="609" type="curve" smooth="yes"/>
      <point x="77" y="546"/>
      <point x="126" y="507"/>
    </contour>
  </outline>
</glyph>
<glyph name="tilde" format="2">
  <advance width="368"/>
  <unicode hex="02DC"/>
  <anchor x="185" y="471" name="_aboveLC"/>
  <anchor x="185" y="675" name="aboveLC"/>
  <outline>
    <contour>
      <point x="27" y="540" type="curve"/>
      <point x="60" y="527" type="line"/>
      <point x="72" y="564"/>
      <point x="90" y="587"/>
      <point x="117" y="587" type="curve" smooth="yes"/>
      <point x="141" y="587"/>
      <point x="160" y="568"/>
      <point x="178" y="552" type="curve" smooth="yes"/>
      <point x="198" y="538"/>
      <point x="220" y="526"/>
      <point x="248" y="526" type="curve" smooth="yes"/>
      <point x="299" y="526"/>
      <point x="333" y="574"/>
      <point x="344" y="651" type="curve"/>
      <point x="310" y="665" type="line"/>
      <point x="299" y="627"/>
      <point x="280" y="604"/>
      <point x="253" y="604" type="curve" smooth="yes"/>
      <point x="230" y="604"/>
      <point x="213" y="621"/>
      <point x="193" y="638" type="curve" smooth="yes"/>
      <point x="174" y="652"/>
      <point x="153" y="665"/>
      <point x="125" y="665" type="curve" smooth="yes"/>
      <point x="72" y="665"/>
      <point x="37" y="618"/>
    </contour>
  </outline>
</glyph>
<glyph name="uni2010" format="2">
  <advance width="303"/>
  <unicode hex="2010"/>
  <outline>
    <contour>
      <point x="36" y="195" type="line"/>
      <point x="266" y="195" type="line"/>
      <point x="266" y="270" type="line"/>
      <point x="36" y="270" type="line"/>
    </contour>
  </outline>
</glyph>
<glyph name="quoteleft" format="2">
  <advance width="273"/>
  <unicode hex="2018"/>
  <outline>
    <contour>
      <point x="173" y="599" type="line"/>
      <point x="100" y="560"/>
      <point x="50" y="489"/>
      <point x="50" y="428" type="curve" smooth="yes"/>
      <point x="50" y="372"/>
      <point x="83" y="343"/>
      <point x="126" y="343" type="curve" smooth="yes"/>
      <point x="161" y="343"/>
      <point x="195" y="368"/>
      <point x="195" y="413" type="curve" smooth="yes"/>
      <point x="195" y="440"/>
      <point x="173" y="470"/>
      <point x="139" y="470" type="curve" smooth="yes"/>
      <point x="116" y="470"/>
      <point x="86" y="452"/>
      <point x="86" y="429" type="curve"/>
      <point x="91" y="429"/>
      <point x="116" y="429"/>
      <point x="123" y="429" type="curve"/>
      <point x="119" y="438"/>
      <point x="119" y="441"/>
      <point x="119" y="457" type="curve" smooth="yes"/>
      <point x="119" y="494"/>
      <point x="149" y="529"/>
      <point x="183" y="556" type="curve"/>
    </contour>
  </outline>
</glyph>
<glyph name="quotedblbase" format="2">
  <advance width="463"/>
  <unicode hex="201E"/>
  <outline>
    <contour>
      <point x="100" y="-137" type="line"/>
      <point x="173" y="-98"/>
      <point x="223" y="-27"/>
      <point x="223" y="34" type="curve" smooth="yes"/>
      <point x="223" y="90"/>
      <point x="190" y="119"/>
      <point x="147" y="119" type="curve" smooth="yes"/>
      <point x="112" y="119"/>
      <point x="78" y="94"/>
      <point x="78" y="49" type="curve" smooth="yes"/>
      <point x="78" y="22"/>
      <point x="100" y="-8"/>
      <point x="134" y="-8" type="curve" smooth="yes"/>
      <point x="157" y="-8"/>
      <point x="187" y="10"/>
      <point x="187" y="33" type="curve"/>
      <point x="182" y="33"/>
      <point x="157" y="33"/>
      <point x="150" y="33" type="curve"/>
      <point x="154" y="24"/>
      <point x="154" y="21"/>
      <point x="154" y="5" type="curve" smooth="yes"/>
      <point x="154" y="-32"/>
      <point x="124" y="-67"/>
      <point x="90" y="-94" type="curve"/>
    </contour>
    <contour>
      <point x="288" y="-137" type="line"/>
      <point x="361" y="-98"/>
      <point x="411" y="-27"/>
      <point x="411" y="34" type="curve" smooth="yes"/>
      <point x="411" y="90"/>
      <point x="378" y="119"/>
      <point x="335" y="119" type="curve" smooth="yes"/>
      <point x="300" y="119"/>
      <point x="266" y="94"/>
      <point x="266" y="49" type="curve" smooth="yes"/>
      <point x="266" y="22"/>
      <point x="288" y="-8"/>
      <point x="322" y="-8" type="curve" smooth="yes"/>
      <point x="345" y="-8"/>
      <point x="375" y="10"/>
      <point x="375" y="33" type="curve"/>
      <point x="370" y="33"/>
      <point x="345" y="33"/>
      <point x="338" y="33" type="curve"/>
      <point x="342" y="24"/>
      <point x="342" y="21"/>
      <point x="342" y="5" type="curve" smooth="yes"/>
      <point x="342" y="-32"/>
      <point x="312" y="-67"/>
      <point x="278" y="-94" type="curve"/>
    </contour>
  </outline>
</glyph>
<glyph name="daggerdbl" format="2">
  <advance width="483"/>
  <unicode hex="2021"/>
  <outline>
    <contour>
      <point x="33" y="123" type="curve" smooth="yes"/>
      <point x="33" y="89"/>
      <point x="52" y="66"/>
      <point x="93" y="66" type="curve" smooth="yes"/>
      <point x="120" y="66"/>
      <point x="151" y="76"/>
      <point x="179" y="88" type="curve" smooth="yes"/>
      <point x="241" y="114" type="line"/>
      <point x="241" y="133" type="line"/>
      <point x="179" y="158" type="line" smooth="yes"/>
      <point x="152" y="169"/>
      <point x="120" y="180"/>
      <point x="93" y="180" type="curve" smooth="yes"/>
      <point x="52" y="180"/>
      <point x="33" y="157"/>
    </contour>
    <contour>
      <point x="448" y="123" type="curve" smooth="yes"/>
      <point x="448" y="157"/>
      <point x="429" y="181"/>
      <point x="389" y="181" type="curve" smooth="yes"/>
      <point x="362" y="181"/>
      <point x="331" y="170"/>
      <point x="302" y="158" type="curve" smooth="yes"/>
      <point x="241" y="133" type="line"/>
      <point x="241" y="114" type="line"/>
      <point x="302" y="88" type="line" smooth="yes"/>
      <point x="331" y="78"/>
      <point x="362" y="66"/>
      <point x="389" y="66" type="curve" smooth="yes"/>
      <point x="429" y="66"/>
      <point x="448" y="89"/>
    </contour>
    <contour>
      <point x="241" y="-91" type="curve" smooth="yes"/>
      <point x="275" y="-91"/>
      <point x="299" y="-73"/>
      <point x="299" y="-33" type="curve" smooth="yes"/>
      <point x="299" y="-5"/>
      <point x="287" y="35"/>
      <point x="276" y="61" type="curve" smooth="yes"/>
      <point x="251" y="123" type="line"/>
      <point x="230" y="123" type="line"/>
      <point x="207" y="61" type="line" smooth="yes"/>
      <point x="196" y="35"/>
      <point x="184" y="-5"/>
      <point x="184" y="-33" type="curve" smooth="yes"/>
      <point x="184" y="-73"/>
      <point x="207" y="-91"/>
    </contour>
    <contour>
      <point x="448" y="446" type="curve" smooth="yes"/>
      <point x="448" y="479"/>
      <point x="429" y="503"/>
      <point x="389" y="503" type="curve" smooth="yes"/>
      <point x="362" y="503"/>
      <point x="331" y="491"/>
      <point x="302" y="480" type="curve" smooth="yes"/>
      <point x="241" y="455" type="line"/>
      <point x="241" y="436" type="line"/>
      <point x="302" y="410" type="line" smooth="yes"/>
      <point x="331" y="398"/>
      <point x="362" y="388"/>
      <point x="389" y="388" type="curve" smooth="yes"/>
      <point x="429" y="388"/>
      <point x="448" y="412"/>
    </contour>
    <contour>
      <point x="241" y="660" type="curve" smooth="yes"/>
      <point x="207" y="660"/>
      <point x="184" y="642"/>
      <point x="184" y="602" type="curve" smooth="yes"/>
      <point x="184" y="574"/>
      <point x="196" y="532"/>
      <point x="207" y="506" type="curve" smooth="yes"/>
      <point x="230" y="446" type="line"/>
      <point x="251" y="446" type="line"/>
      <point x="276" y="506" type="line" smooth="yes"/>
      <point x="287" y="533"/>
      <point x="299" y="574"/>
      <point x="299" y="602" type="curve" smooth="yes"/>
      <point x="299" y="642"/>
      <point x="275" y="660"/>
    </contour>
    <contour>
      <point x="33" y="446" type="curve" smooth="yes"/>
      <point x="33" y="412"/>
      <point x="52" y="388"/>
      <point x="93" y="388" type="curve" smooth="yes"/>
      <point x="120" y="388"/>
      <point x="152" y="400"/>
      <point x="179" y="411" type="curve" smooth="yes"/>
      <point x="241" y="436" type="line"/>
      <point x="241" y="455" type="line"/>
      <point x="179" y="481" type="line" smooth="yes"/>
      <point x="151" y="492"/>
      <point x="120" y="503"/>
      <point x="93" y="503" type="curve" smooth="yes"/>
      <point x="52" y="503"/>
      <point x="33" y="479"/>
    </contour>
    <contour>
      <point x="297" y="285" type="curve" smooth="yes"/>
      <point x="297" y="331"/>
      <point x="286" y="363"/>
      <point x="251" y="446" type="curve"/>
      <point x="231" y="446" type="line"/>
      <point x="195" y="362"/>
      <point x="184" y="331"/>
      <point x="184" y="285" type="curve" smooth="yes"/>
      <point x="184" y="239"/>
      <point x="195" y="207"/>
      <point x="231" y="123" type="curve"/>
      <point x="251" y="123" type="line"/>
      <point x="286" y="206"/>
      <point x="297" y="238"/>
    </contour>
  </outline>
</glyph>
<glyph name="guilsinglleft" format="2">
  <advance width="291"/>
  <unicode hex="2039"/>
  <outline>
    <contour>
      <point x="230" y="34" type="line"/>
      <point x="260" y="64" type="line"/>
      <point x="95" y="261" type="line"/>
      <point x="95" y="203" type="line"/>
      <point x="260" y="400" type="line"/>
      <point x="230" y="430" type="line"/>
      <point x="24" y="260" type="line"/>
      <point x="24" y="204" type="line"/>
    </contour>
  </outline>
</glyph>
<glyph name="guilsinglright" format="2">
  <advance width="291"/>
  <unicode hex="203A"/>
  <outline>
    <contour>
      <point x="60" y="430" type="line"/>
      <point x="32" y="400" type="line"/>
      <point x="196" y="203" type="line"/>
      <point x="196" y="261" type="line"/>
      <point x="32" y="64" type="line"/>
      <point x="60" y="34" type="line"/>
      <point x="266" y="204" type="line"/>
      <point x="266" y="260" type="line"/>
    </contour>
  </outline>
</glyph>
<glyph name="Omega" format="2">
  <advance width="673"/>
  <unicode hex="2126"/>
  <outline>
    <contour>
      <point x="30" y="0" type="line"/>
      <point x="289" y="0" type="line"/>
      <point x="297" y="133" type="line"/>
      <point x="220" y="174"/>
      <point x="183" y="245"/>
      <point x="183" y="360" type="curve" smooth="yes"/>
      <point x="183" y="482"/>
      <point x="231" y="573"/>
      <point x="336" y="573" type="curve" smooth="yes"/>
      <point x="443" y="573"/>
      <point x="492" y="483"/>
      <point x="492" y="360" type="curve" smooth="yes"/>
      <point x="492" y="258"/>
      <point x="458" y="175"/>
      <point x="375" y="133" type="curve"/>
      <point x="383" y="0" type="line"/>
      <point x="642" y="0" type="line"/>
      <point x="656" y="170" type="line"/>
      <point x="599" y="170" type="line"/>
      <point x="568" y="61" type="line"/>
      <point x="603" y="88" type="line"/>
      <point x="411" y="88" type="line"/>
      <point x="440" y="60" type="line"/>
      <point x="437" y="103" type="line"/>
      <point x="552" y="151"/>
      <point x="628" y="245"/>
      <point x="628" y="363" type="curve" smooth="yes"/>
      <point x="628" y="504"/>
      <point x="521" y="624"/>
      <point x="336" y="624" type="curve" smooth="yes"/>
      <point x="154" y="624"/>
      <point x="45" y="506"/>
      <point x="45" y="357" type="curve" smooth="yes"/>
      <point x="45" y="228"/>
      <point x="128" y="145"/>
      <point x="234" y="103" type="curve"/>
      <point x="231" y="60" type="line"/>
      <point x="261" y="88" type="line"/>
      <point x="69" y="88" type="line"/>
      <point x="104" y="61" type="line"/>
      <point x="73" y="170" type="line"/>
      <point x="15" y="170" type="line"/>
    </contour>
  </outline>
</glyph>
<glyph name="bulletoperator" format="2">
  <advance width="276"/>
  <unicode hex="2219"/>
  <outline>
    <contour>
      <point x="138" y="223" type="curve" smooth="yes"/>
      <point x="181" y="223"/>
      <point x="215" y="257"/>
      <point x="215" y="299" type="curve" smooth="yes"/>
      <point x="215" y="342"/>
      <point x="181" y="378"/>
      <point x="138" y="378" type="curve" smooth="yes"/>
      <point x="94" y="378"/>
      <point x="60" y="342"/>
      <point x="60" y="299" type="curve" smooth="yes"/>
      <point x="60" y="257"/>
      <point x="94" y="223"/>
    </contour>
  </outline>
</glyph>
<glyph name="radical" format="2">
  <advance width="523"/>
  <unicode hex="221A"/>
  <outline>
    <contour>
      <point x="115" y="301" type="line"/>
      <point x="257" y="-96" type="line"/>
      <point x="329" y="-96" type="line"/>
      <point x="528" y="714" type="line"/>
      <point x="437" y="714" type="line"/>
      <point x="285" y="-49" type="line"/>
      <point x="322" y="-34" type="line"/>
      <point x="205" y="333" type="line"/>
      <point x="34" y="333" type="line"/>
      <point x="34" y="264" type="line"/>
      <point x="142" y="264" type="line"/>
    </contour>
  </outline>
</glyph>
<glyph name="uniA4D0" format="2">
  <advance width="546"/>
  <unicode hex="A4D0"/>
  <outline>
    <contour>
      <point x="52" y="0" type="line"/>
      <point x="302" y="0" type="line" smooth="yes"/>
      <point x="425" y="0"/>
      <point x="502" y="51"/>
      <point x="502" y="162" type="curve" smooth="yes"/>
      <point x="502" y="230"/>
      <point x="453" y="283"/>
      <point x="351" y="294" type="curve"/>
      <point x="351" y="256" type="line"/>
      <point x="448" y="285"/>
      <point x="484" y="333"/>
      <point x="484" y="387" type="curve" smooth="yes"/>
      <point x="484" y="475"/>
      <point x="417" y="530"/>
      <point x="294" y="530" type="curve" smooth="yes"/>
      <point x="52" y="530" type="line"/>
    </contour>
    <contour>
      <point x="196" y="40" type="line"/>
      <point x="196" y="260" type="line"/>
      <point x="124" y="227" type="line"/>
      <point x="248" y="227" type="line" smooth="yes"/>
      <point x="313" y="227"/>
      <point x="358" y="216"/>
      <point x="358" y="160" type="curve" smooth="yes"/>
      <point x="358" y="100"/>
      <point x="313" y="92"/>
      <point x="248" y="92" type="curve" smooth="yes"/>
      <point x="124" y="92" type="line"/>
    </contour>
    <contour>
      <point x="196" y="280" type="line"/>
      <point x="196" y="490" type="line"/>
      <point x="124" y="438" type="line"/>
      <point x="240" y="438" type="line" smooth="yes"/>
      <point x="305" y="438"/>
      <point x="340" y="428"/>
      <point x="340" y="379" type="curve" smooth="yes"/>
      <point x="340" y="326"/>
      <point x="305" y="313"/>
      <point x="240" y="313" type="curve" smooth="yes"/>
      <point x="124" y="313" type="line"/>
    </contour>
  </outline>
</glyph>
<glyph name="uniA4D9" format="2">
  <advance width="502"/>
  <unicode hex="A4D9"/>
  <outline>
    <contour>
      <point x="246" y="-8" type="curve" smooth="yes"/>
      <point x="376" y="-8"/>
      <point x="450" y="70"/>
      <point x="450" y="190" type="curve" smooth="yes"/>
      <point x="450" y="530" type="line"/>
      <point x="306" y="530" type="line"/>
      <point x="306" y="202" type="line" smooth="yes"/>
      <point x="306" y="128"/>
      <point x="291" y="84"/>
      <point x="246" y="84" type="curve" smooth="yes"/>
      <point x="201" y="84"/>
      <point x="186" y="124"/>
      <point x="186" y="182" type="curve" smooth="yes"/>
      <point x="186" y="185" type="line"/>
      <point x="42" y="185" type="line"/>
      <point x="42" y="160" type="line" smooth="yes"/>
      <point x="42" y="66"/>
      <point x="116" y="-8"/>
    </contour>
  </outline>
</glyph>
<glyph name="uniA4DC" format="2">
  <advance width="536"/>
  <unicode hex="A4DC"/>
  <outline>
    <contour>
      <point x="42" y="0" type="line"/>
      <point x="494" y="0" type="line"/>
      <point x="494" y="86" type="line"/>
      <point x="129" y="86" type="line"/>
      <point x="172" y="45" type="line"/>
      <point x="494" y="455" type="line"/>
      <point x="494" y="530" type="line"/>
      <point x="57" y="530" type="line"/>
      <point x="57" y="444" type="line"/>
      <point x="407" y="444" type="line"/>
      <point x="364" y="485" type="line"/>
      <point x="42" y="75" type="line"/>
    </contour>
  </outline>
</glyph>
<glyph name="uniA4DF" format="2">
  <advance width="646"/>
  <unicode hex="A4DF"/>
  <outline>
    <contour>
      <point x="52" y="0" type="line"/>
      <point x="196" y="0" type="line"/>
      <point x="196" y="359" type="line"/>
      <point x="269" y="226" type="line" smooth="yes"/>
      <point x="281" y="205"/>
      <point x="298" y="191"/>
      <point x="323" y="191" type="curve" smooth="yes"/>
      <point x="348" y="191"/>
      <point x="365" y="205"/>
      <point x="377" y="226" type="curve" smooth="yes"/>
      <point x="450" y="359" type="line"/>
      <point x="450" y="0" type="line"/>
      <point x="594" y="0" type="line"/>
      <point x="594" y="530" type="line"/>
      <point x="455" y="530" type="line"/>
      <point x="308" y="265" type="line"/>
      <point x="338" y="265" type="line"/>
      <point x="191" y="530" type="line"/>
      <point x="52" y="530" type="line"/>
    </contour>
  </outline>
</glyph>
<glyph name="uniA4EE" format="2">
  <advance width="646"/>
  <unicode hex="A4EE"/>
  <outline>
    <contour>
      <point x="36" y="0" type="line"/>
      <point x="186" y="0" type="line"/>
      <point x="231" y="122" type="line"/>
      <point x="148" y="92" type="line"/>
      <point x="498" y="92" type="line"/>
      <point x="415" y="122" type="line"/>
      <point x="460" y="0" type="line"/>
      <point x="610" y="0" type="line"/>
      <point x="398" y="530" type="line"/>
      <point x="248" y="530" type="line"/>
    </contour>
    <contour>
      <point x="243" y="153" type="line"/>
      <point x="339" y="464" type="line"/>
      <point x="307" y="464" type="line"/>
      <point x="403" y="153" type="line"/>
      <point x="470" y="172" type="line"/>
      <point x="176" y="172" type="line"/>
    </contour>
  </outline>
</glyph>
<glyph name="uniA4F1" format="2">
  <advance width="512"/>
  <unicode hex="A4F1"/>
  <outline>
    <contour>
      <point x="40" y="0" type="line"/>
      <point x="460" y="0" type="line"/>
      <point x="460" y="530" type="line"/>
      <point x="50" y="530" type="line"/>
      <point x="50" y="438" type="line"/>
      <point x="316" y="438" type="line"/>
      <point x="316" y="92" type="line"/>
      <point x="40" y="92" type="line"/>
    </contour>
    <contour>
      <point x="90" y="227" type="line"/>
      <point x="388" y="227" type="line"/>
      <point x="388" y="313" type="line"/>
      <point x="90" y="313" type="line"/>
    </contour>
  </outline>
</glyph>
<glyph name="uniA4F7" format="2">
  <advance width="551"/>
  <unicode hex="A4F7"/>
  <outline>
    <contour>
      <point x="313" y="0" type="curve" smooth="yes"/>
      <point x="499" y="0" type="line"/>
      <point x="499" y="530" type="line"/>
      <point x="313" y="530" type="line" smooth="yes"/>
      <point x="148" y="530"/>
      <point x="44" y="410"/>
      <point x="44" y="255" type="curve" smooth="yes"/>
      <point x="44" y="100"/>
      <point x="143" y="0"/>
    </contour>
    <contour>
      <point x="355" y="40" type="line"/>
      <point x="427" y="92" type="line"/>
      <point x="323" y="92" type="line" smooth="yes"/>
      <point x="218" y="92"/>
      <point x="188" y="145"/>
      <point x="188" y="260" type="curve" smooth="yes"/>
      <point x="188" y="375"/>
      <point x="218" y="438"/>
      <point x="323" y="438" type="curve" smooth="yes"/>
      <point x="427" y="438" type="line"/>
      <point x="355" y="490" type="line"/>
    </contour>
  </outline>
</glyph>
<glyph name="uniA4FF" format="2">
  <advance width="439"/>
  <unicode hex="A4FF"/>
  <outline>
    <contour>
      <point x="57" y="290" type="line"/>
      <point x="395" y="290" type="line"/>
      <point x="395" y="376" type="line"/>
      <point x="57" y="376" type="line"/>
    </contour>
    <contour>
      <point x="57" y="124" type="line"/>
      <point x="395" y="124" type="line"/>
      <point x="395" y="210" type="line"/>
      <point x="57" y="210" type="line"/>
    </contour>
  </outline>
</glyph>
<glyph name="u11FB0" format="2">
  <advance width="616"/>
  <unicode hex="11FB0"/>
  <outline>
    <contour>
      <point x="380" y="530" type="line"/>
      <point x="236" y="530" type="line"/>
      <point x="236" y="307" type="line"/>
      <point x="36" y="0" type="line"/>
      <point x="185" y="0" type="line"/>
      <point x="338" y="260" type="line"/>
      <point x="278" y="260" type="line"/>
      <point x="431" y="0" type="line"/>
      <point x="580" y="0" type="line"/>
      <point x="380" y="307" type="line"/>
    </contour>
  </outline>
</glyph>
